<?xml version="1.0" encoding="utf-8"?>
<!-- Generator: Adobe Illustrator 19.0.0, SVG Export Plug-In . SVG Version: 6.00 Build 0)  -->
<svg version="1.1" id="Layer_1" xmlns="http://www.w3.org/2000/svg" xmlns:xlink="http://www.w3.org/1999/xlink" x="0px" y="0px"
	 viewBox="-67 69 64 64" style="enable-background:new -67 69 64 64;" xml:space="preserve">
<style type="text/css">
	.st0{fill:#F9B01D;}
	.st1{fill:#3F2D13;}
	.st2{fill:#604813;}
</style>
<circle class="st0" cx="-35" cy="101" r="30"/>
<g>
	<circle class="st1" cx="-46.5" cy="98.6" r="5"/>
	<circle class="st1" cx="-23.5" cy="98.6" r="5"/>
</g>
<g>
	<path class="st2" d="M-15.8,87.7c-3.2-2.7-7.5-3.9-11.7-3.1c-0.6,0.1-1.1-2-0.4-2.2c4.8-0.9,9.8,0.5,13.5,3.6
		C-13.8,86.5-15.4,88.1-15.8,87.7"/>
	<path class="st2" d="M-42.5,84.4c-4.2-0.7-8.5,0.4-11.7,3.1c-0.4,0.4-2-1.2-1.4-1.7c3.7-3.2,8.7-4.5,13.5-3.6
		C-41.4,82.4-41.9,84.6-42.5,84.4"/>
</g>
<path class="st1" d="M-26.4,113.4c-5.4-2.5-11.8-2.5-17.2,0c-1.3,0.6,0.3,4.2,1.7,3.5c3.6-1.7,8.9-2.3,13.9,0
	C-26.7,117.5-25,114.1-26.4,113.4"/>
</svg>
