<?xml version="1.0" encoding="utf-8"?>
<!-- Generator: Adobe Illustrator 19.0.0, SVG Export Plug-In . SVG Version: 6.00 Build 0)  -->
<svg version="1.1" id="Layer_1" xmlns="http://www.w3.org/2000/svg" xmlns:xlink="http://www.w3.org/1999/xlink" x="0px" y="0px"
	 viewBox="-67 69 64 64" style="enable-background:new -67 69 64 64;" xml:space="preserve">
<style type="text/css">
	.st0{fill:#4495CC;}
	.st1{fill:#F9B01D;}
	.st2{fill:#3F2D13;}
	.st3{fill:#FFFFFF;}
	.st4{fill:#604813;}
</style>
<g>
	<ellipse class="st0" cx="-49.5" cy="128.9" rx="12.5" ry="1.5"/>
	<ellipse class="st0" cx="-23" cy="129.2" rx="18" ry="1.8"/>
</g>
<circle class="st1" cx="-35" cy="101" r="30"/>
<path class="st2" d="M-22.3,115c-1.4-3.6-4.8-6-12.7-6c-8,0-11.3,2.4-12.7,6c-0.7,1.9,0.3,5,0.3,5c1.3,3.9,1.1,5,12.4,5
	s11.1-1.1,12.4-5C-22.6,120-21.5,116.9-22.3,115"/>
<path class="st3" d="M-26,114c0.1-0.3,0-0.6-0.2-0.8c0,0-2-2.2-8.8-2.2s-8.8,2.2-8.8,2.2c-0.2,0.1-0.2,0.5-0.2,0.8l0.2,0.6
	c0.1,0.3,0.3,0.5,0.5,0.5h16.6c0.2,0,0.5-0.2,0.5-0.5L-26,114"/>
<g>
	<path class="st0" d="M-22.5,129.5c2.3,0,4.6,0,6.8,0c8.2-9.9-1.5-20,0.9-29.8c-2.3,0-4.6,2.5-6.8,2.5
		C-24.8,111.7-14.3,119.6-22.5,129.5"/>
	<path class="st0" d="M-47.5,129.5c-2.3,0-4.6,0-6.8,0c-8.2-9.9,1.5-20-0.9-29.8c2.3,0,4.6,2.5,6.8,2.5
		C-45.2,111.7-55.7,119.6-47.5,129.5"/>
</g>
<g>
	<path class="st4" d="M-26.3,87.3c3,3,7.2,4.5,11.4,4.1c0.6-0.1,0.9,2.1,0.2,2.2c-4.9,0.4-9.7-1.3-13.1-4.8
		C-28.4,88.3-26.7,86.9-26.3,87.3"/>
	<path class="st4" d="M-55,91.4c4.2,0.4,8.4-1.1,11.4-4.1c0.4-0.4,2.1,1,1.6,1.5c-3.4,3.5-8.3,5.2-13.1,4.8
		C-56,93.6-55.6,91.4-55,91.4"/>
</g>
<g>
	<path class="st2" d="M-31.1,99.3c4.2,8,12.7,8,16.9,0c0.2-0.4-0.3-0.6-1-1c-4.2,3.3-11.1,3-14.9,0C-30.7,98.7-31.3,98.9-31.1,99.3"
		/>
	<path class="st2" d="M-55.8,99.3c4.2,8,12.7,8,16.9,0c0.2-0.4-0.3-0.6-1-1c-4.2,3.3-11.1,3-14.9,0C-55.5,98.7-56,98.9-55.8,99.3"/>
</g>
</svg>
