<?xml version="1.0" encoding="utf-8"?>
<!-- Generator: Adobe Illustrator 19.0.0, SVG Export Plug-In . SVG Version: 6.00 Build 0)  -->
<svg version="1.1" id="Layer_1" xmlns="http://www.w3.org/2000/svg" xmlns:xlink="http://www.w3.org/1999/xlink" x="0px" y="0px"
	 viewBox="-67 69 64 64" style="enable-background:new -67 69 64 64;" xml:space="preserve">
<style type="text/css">
	.st0{fill:#F9B01D;}
	.st1{opacity:0.8;fill:#D32F47;enable-background:new    ;}
	.st2{fill:#3F2D13;}
</style>
<circle class="st0" cx="-35" cy="101" r="30"/>
<g>
	<circle class="st1" cx="-16.2" cy="105" r="8"/>
	<circle class="st1" cx="-53.8" cy="105" r="8"/>
</g>
<g>
	<path class="st2" d="M-22.4,109.3c-8.1,5.7-17.1,5.6-25.2,0c-1-0.7-1.8,0.5-1.2,1.6c2.5,4,7.4,7.7,13.8,7.7s11.3-3.6,13.8-7.7
		C-20.6,109.8-21.4,108.6-22.4,109.3"/>
	<path class="st2" d="M-38.5,95.9c-1.9-5.1-4.7-7.7-7.5-7.7s-5.6,2.6-7.5,7.7c-0.2,0.5,0.8,1.4,1.3,0.9c1.8-1.9,4-2.7,6.2-2.7
		s4.4,0.8,6.2,2.7C-39.2,97.3-38.3,96.4-38.5,95.9"/>
	<path class="st2" d="M-16.6,95.9c-1.9-5.1-4.7-7.7-7.5-7.7s-5.6,2.6-7.5,7.7c-0.2,0.5,0.8,1.4,1.3,0.9c1.8-1.9,4-2.7,6.2-2.7
		s4.4,0.8,6.2,2.7C-17.4,97.3-16.4,96.4-16.6,95.9"/>
</g>
</svg>
