<?xml version="1.0" encoding="utf-8"?>
<!-- Generator: Adobe Illustrator 19.0.0, SVG Export Plug-In . SVG Version: 6.00 Build 0)  -->
<svg version="1.1" id="Layer_1" xmlns="http://www.w3.org/2000/svg" xmlns:xlink="http://www.w3.org/1999/xlink" x="0px" y="0px"
	 viewBox="-67 69 64 64" style="enable-background:new -67 69 64 64;" xml:space="preserve">
<style type="text/css">
	.st0{fill:#F9B01D;}
	.st1{fill:#AF1919;}
	.st2{fill:#3F2D13;}
	.st3{fill:#FFFFFF;}
</style>
<path class="st0" d="M-5,101c0,16.6-13.4,30-30,30s-30-13.4-30-30s13.4-30,30-30S-5,84.4-5,101z"/>
<g>
	<path class="st1" d="M-5.2,82.2c-0.5-2.7-2-4.9-4.5-5.6c-2.7-0.7-5.1,0.3-7.4,2.7c-1.3-3.6-3.3-6.3-6.5-7.7s-6.4-0.4-8.4,2.1
		c-2.1,2.6-2.9,6.7-0.7,12c2.1,5,11.4,15,11.7,15.3c0.4-0.2,10.8-6.7,13.3-9.9C-5.2,88-4.7,84.9-5.2,82.2"/>
	<path class="st1" d="M-38,73.7c-2-2.5-5.2-3.5-8.4-2.1c-3.2,1.4-5.2,4.1-6.5,7.7c-2.4-2.3-4.8-3.4-7.5-2.6c-2.4,0.7-4,2.9-4.5,5.6
		c-0.5,2.6,0.1,5.8,2.5,8.9c2.6,3.1,13,9.6,13.4,9.8c0.3-0.3,9.6-10.3,11.7-15.3C-35.1,80.4-35.9,76.4-38,73.7"/>
</g>
<path class="st2" d="M-18,107.1c0-0.8-0.5-1.8-1.8-2.1c-3.5-0.7-8.6-1.3-15.2-1.3s-11.7,0.7-15.2,1.3c-1.4,0.3-1.8,1.3-1.8,2.1
	c0,7.3,5.6,14.6,17,14.6C-23.6,121.6-18,114.3-18,107.1"/>
<path class="st3" d="M-22.3,107.3c-2.2-0.4-6.8-1-12.7-1s-10.5,0.6-12.7,1c-1.3,0.2-1.4,0.7-1.3,1.5c0.1,0.4,0.1,1,0.3,1.6
	c0.1,0.6,0.3,0.9,1.3,0.8c1.9-0.2,23-0.2,24.9,0c1,0.1,1.1-0.2,1.3-0.8c0.1-0.6,0.2-1.1,0.3-1.6C-20.9,108-21,107.5-22.3,107.3"/>
</svg>
