<?xml version="1.0" encoding="utf-8"?>
<!-- Generator: Adobe Illustrator 19.0.0, SVG Export Plug-In . SVG Version: 6.00 Build 0)  -->
<svg version="1.1" xmlns="http://www.w3.org/2000/svg" xmlns:xlink="http://www.w3.org/1999/xlink" x="0px" y="0px"
	 viewBox="0 0 706.4 190.5" style="enable-background:new 0 0 706.4 190.5;" xml:space="preserve">
<style type="text/css">
	.st0{fill:#FFFFFF;}
	.st1{fill:#555555;}
</style>
<g id="Background">
</g>
<g id="Object">
	<g>
		<g>
			<path class="st0" d="M237.6,776v-0.3c-0.4,0.4-0.7,0.8-1.1,1c-0.4,0.3-0.7,0.5-1.2,0.6c-0.4,0.1-0.9,0.2-1.4,0.2
				c-0.6,0-1.3-0.1-1.8-0.4c-0.6-0.3-1-0.7-1.4-1.2c-0.4-0.5-0.7-1.1-0.9-1.8c-0.2-0.7-0.3-1.4-0.3-2.2c0-1.7,0.4-3,1.2-4
				c0.8-0.9,1.9-1.4,3.3-1.4c0.8,0,1.4,0.1,2,0.4c0.5,0.3,1.1,0.7,1.6,1.2v-4c0-0.6,0.1-1,0.3-1.3c0.2-0.3,0.5-0.4,0.9-0.4
				c0.4,0,0.7,0.1,1,0.4c0.2,0.3,0.3,0.6,0.3,1.2v12c0,0.5-0.1,0.9-0.4,1.2s-0.5,0.4-0.9,0.4c-0.4,0-0.7-0.1-0.9-0.4
				C237.7,776.9,237.6,776.5,237.6,776z M232.2,772c0,0.7,0.1,1.4,0.3,1.9c0.2,0.5,0.5,0.9,0.9,1.2c0.4,0.3,0.8,0.4,1.3,0.4
				c0.5,0,0.9-0.1,1.3-0.4c0.4-0.2,0.7-0.6,0.9-1.1c0.2-0.5,0.4-1.2,0.4-1.9c0-0.7-0.1-1.3-0.4-1.9c-0.2-0.5-0.6-0.9-1-1.2
				c-0.4-0.3-0.8-0.4-1.3-0.4c-0.5,0-0.9,0.1-1.3,0.4c-0.4,0.3-0.7,0.7-0.9,1.2C232.4,770.7,232.2,771.3,232.2,772z"/>
			<path class="st0" d="M249.6,772.7h-5.3c0,0.6,0.1,1.2,0.4,1.6c0.2,0.5,0.6,0.8,1,1.1c0.4,0.2,0.8,0.4,1.3,0.4
				c0.3,0,0.6,0,0.9-0.1c0.3-0.1,0.5-0.2,0.8-0.4c0.2-0.2,0.5-0.3,0.7-0.5c0.2-0.2,0.5-0.4,0.8-0.8c0.1-0.1,0.3-0.2,0.6-0.2
				c0.3,0,0.5,0.1,0.7,0.2c0.2,0.2,0.3,0.4,0.3,0.6c0,0.2-0.1,0.5-0.3,0.9c-0.2,0.3-0.5,0.6-0.9,0.9c-0.4,0.3-0.9,0.5-1.5,0.8
				c-0.6,0.2-1.3,0.3-2,0.3c-1.7,0-3.1-0.5-4.1-1.5c-1-1-1.5-2.3-1.5-4c0-0.8,0.1-1.5,0.4-2.2c0.2-0.7,0.6-1.3,1-1.8
				c0.5-0.5,1-0.9,1.7-1.1c0.7-0.3,1.4-0.4,2.2-0.4c1.1,0,2,0.2,2.7,0.7c0.8,0.4,1.3,1,1.7,1.7c0.4,0.7,0.6,1.4,0.6,2.2
				c0,0.7-0.2,1.1-0.6,1.3C250.8,772.6,250.3,772.7,249.6,772.7z M244.2,771.2h4.9c-0.1-0.9-0.3-1.6-0.8-2.1c-0.4-0.5-1-0.7-1.7-0.7
				c-0.7,0-1.2,0.2-1.7,0.7C244.6,769.6,244.3,770.3,244.2,771.2z"/>
			<path class="st0" d="M261.9,774c0,0.8-0.2,1.4-0.5,1.9c-0.4,0.5-0.9,0.9-1.6,1.2c-0.7,0.3-1.6,0.4-2.6,0.4c-1,0-1.8-0.2-2.5-0.4
				c-0.7-0.3-1.2-0.7-1.5-1.1c-0.3-0.4-0.5-0.9-0.5-1.3c0-0.3,0.1-0.6,0.3-0.8c0.2-0.2,0.5-0.3,0.8-0.3c0.3,0,0.5,0.1,0.7,0.2
				c0.2,0.1,0.3,0.3,0.4,0.6c0.3,0.5,0.6,0.8,1,1.1c0.4,0.2,0.9,0.4,1.6,0.4c0.5,0,1-0.1,1.3-0.4c0.3-0.2,0.5-0.5,0.5-0.8
				c0-0.5-0.2-0.8-0.5-1c-0.4-0.2-1-0.4-1.8-0.6c-0.9-0.2-1.7-0.5-2.3-0.7c-0.6-0.3-1.1-0.6-1.4-1c-0.4-0.4-0.5-0.9-0.5-1.5
				c0-0.5,0.2-1.1,0.5-1.5c0.3-0.5,0.8-0.9,1.4-1.2c0.6-0.3,1.4-0.4,2.3-0.4c0.7,0,1.3,0.1,1.9,0.2c0.6,0.1,1,0.3,1.4,0.6
				c0.4,0.2,0.7,0.5,0.9,0.8c0.2,0.3,0.3,0.6,0.3,0.9c0,0.3-0.1,0.6-0.3,0.8c-0.2,0.2-0.5,0.3-0.9,0.3c-0.3,0-0.5-0.1-0.7-0.2
				c-0.2-0.2-0.4-0.4-0.7-0.7c-0.2-0.3-0.4-0.5-0.7-0.6c-0.3-0.2-0.7-0.2-1.1-0.2c-0.5,0-0.9,0.1-1.2,0.3c-0.3,0.2-0.5,0.5-0.5,0.8
				c0,0.3,0.1,0.5,0.4,0.7c0.2,0.2,0.6,0.3,1,0.5c0.4,0.1,1,0.3,1.7,0.4c0.8,0.2,1.5,0.5,2.1,0.7c0.5,0.3,0.9,0.6,1.2,1
				C261.8,773.1,261.9,773.5,261.9,774z"/>
			<path class="st0" d="M264.7,765.3c-0.4,0-0.7-0.1-1-0.3c-0.3-0.2-0.4-0.6-0.4-1c0-0.4,0.1-0.7,0.4-0.9c0.3-0.2,0.6-0.4,1-0.4
				c0.4,0,0.7,0.1,0.9,0.3c0.3,0.2,0.4,0.6,0.4,1c0,0.4-0.1,0.7-0.4,1C265.4,765.2,265.1,765.3,264.7,765.3z M266,768.1v7.8
				c0,0.5-0.1,1-0.4,1.2c-0.3,0.3-0.6,0.4-1,0.4c-0.4,0-0.7-0.1-1-0.4c-0.2-0.3-0.4-0.7-0.4-1.2v-7.8c0-0.5,0.1-0.9,0.4-1.2
				c0.2-0.3,0.6-0.4,1-0.4c0.4,0,0.7,0.1,1,0.4C265.9,767.2,266,767.6,266,768.1z"/>
			<path class="st0" d="M277.9,768.5v7.9c0,0.9-0.1,1.7-0.3,2.3c-0.2,0.7-0.5,1.2-0.9,1.6c-0.4,0.4-1,0.7-1.7,0.9
				c-0.7,0.2-1.5,0.3-2.6,0.3c-0.9,0-1.8-0.1-2.5-0.4c-0.7-0.3-1.3-0.6-1.7-1c-0.4-0.4-0.6-0.8-0.6-1.3c0-0.3,0.1-0.6,0.3-0.8
				c0.2-0.2,0.5-0.3,0.8-0.3c0.4,0,0.7,0.2,1,0.5c0.1,0.2,0.3,0.4,0.5,0.5c0.2,0.2,0.3,0.3,0.5,0.5c0.2,0.1,0.4,0.2,0.7,0.3
				c0.3,0.1,0.6,0.1,0.9,0.1c0.7,0,1.2-0.1,1.6-0.3c0.4-0.2,0.7-0.5,0.8-0.8c0.2-0.3,0.2-0.7,0.3-1.1c0-0.4,0-1,0.1-1.9
				c-0.4,0.6-0.9,1-1.4,1.3c-0.5,0.3-1.2,0.5-2,0.5c-0.9,0-1.7-0.2-2.4-0.7c-0.7-0.5-1.2-1.1-1.6-1.9c-0.4-0.8-0.5-1.8-0.5-2.9
				c0-0.8,0.1-1.6,0.3-2.2c0.2-0.7,0.5-1.2,0.9-1.7c0.4-0.5,0.9-0.8,1.4-1c0.5-0.2,1.1-0.3,1.8-0.3c0.8,0,1.4,0.1,2,0.4
				c0.6,0.3,1.1,0.8,1.6,1.4V768c0-0.5,0.1-0.8,0.3-1.1c0.2-0.3,0.5-0.4,0.9-0.4c0.5,0,0.9,0.2,1,0.5
				C277.8,767.4,277.9,767.9,277.9,768.5z M270.1,772c0,1.1,0.2,1.9,0.7,2.5c0.5,0.6,1.1,0.8,1.9,0.8c0.4,0,0.9-0.1,1.3-0.4
				c0.4-0.2,0.7-0.6,1-1.1c0.3-0.5,0.4-1.1,0.4-1.8c0-1.1-0.2-2-0.7-2.6c-0.5-0.6-1.1-0.9-1.9-0.9c-0.8,0-1.4,0.3-1.9,0.9
				C270.3,770,270.1,770.9,270.1,772z"/>
			<path class="st0" d="M282.2,768v0.3c0.5-0.6,1-1.1,1.6-1.4c0.6-0.3,1.2-0.4,2-0.4c0.7,0,1.4,0.2,1.9,0.5c0.6,0.3,1,0.8,1.3,1.3
				c0.2,0.3,0.3,0.7,0.3,1.1c0.1,0.4,0.1,0.9,0.1,1.5v5.1c0,0.5-0.1,1-0.4,1.2c-0.2,0.3-0.6,0.4-1,0.4c-0.4,0-0.7-0.1-1-0.4
				c-0.3-0.3-0.4-0.7-0.4-1.2v-4.5c0-0.9-0.1-1.6-0.4-2.1c-0.2-0.5-0.7-0.7-1.5-0.7c-0.5,0-0.9,0.1-1.3,0.4
				c-0.4,0.3-0.7,0.7-0.9,1.2c-0.1,0.4-0.2,1.2-0.2,2.3v3.4c0,0.6-0.1,1-0.4,1.2c-0.3,0.3-0.6,0.4-1,0.4c-0.4,0-0.7-0.1-1-0.4
				c-0.3-0.3-0.4-0.7-0.4-1.2v-7.8c0-0.5,0.1-0.9,0.3-1.2c0.2-0.3,0.5-0.4,0.9-0.4c0.2,0,0.5,0.1,0.6,0.2c0.2,0.1,0.3,0.3,0.5,0.5
				C282.2,767.4,282.2,767.7,282.2,768z"/>
			<path class="st0" d="M298.8,772.7h-5.3c0,0.6,0.1,1.2,0.4,1.6c0.2,0.5,0.6,0.8,1,1.1c0.4,0.2,0.8,0.4,1.3,0.4
				c0.3,0,0.6,0,0.9-0.1c0.3-0.1,0.5-0.2,0.8-0.4c0.3-0.2,0.5-0.3,0.7-0.5c0.2-0.2,0.5-0.4,0.8-0.8c0.1-0.1,0.3-0.2,0.6-0.2
				c0.3,0,0.5,0.1,0.7,0.2c0.2,0.2,0.3,0.4,0.3,0.6c0,0.2-0.1,0.5-0.3,0.9c-0.2,0.3-0.5,0.6-0.9,0.9c-0.4,0.3-0.9,0.5-1.5,0.8
				c-0.6,0.2-1.3,0.3-2,0.3c-1.7,0-3.1-0.5-4.1-1.5c-1-1-1.4-2.3-1.4-4c0-0.8,0.1-1.5,0.4-2.2c0.2-0.7,0.6-1.3,1-1.8
				c0.5-0.5,1-0.9,1.7-1.1c0.7-0.3,1.4-0.4,2.2-0.4c1.1,0,2,0.2,2.7,0.7c0.8,0.4,1.3,1,1.7,1.7c0.4,0.7,0.6,1.4,0.6,2.2
				c0,0.7-0.2,1.1-0.6,1.3C300,772.6,299.5,772.7,298.8,772.7z M293.4,771.2h4.9c-0.1-0.9-0.3-1.6-0.8-2.1c-0.4-0.5-1-0.7-1.7-0.7
				c-0.7,0-1.2,0.2-1.7,0.7C293.8,769.6,293.5,770.3,293.4,771.2z"/>
			<path class="st0" d="M309.8,776v-0.3c-0.4,0.4-0.7,0.8-1.1,1c-0.4,0.3-0.7,0.5-1.2,0.6c-0.4,0.1-0.9,0.2-1.4,0.2
				c-0.7,0-1.3-0.1-1.8-0.4c-0.6-0.3-1-0.7-1.4-1.2c-0.4-0.5-0.7-1.1-0.9-1.8c-0.2-0.7-0.3-1.4-0.3-2.2c0-1.7,0.4-3,1.2-4
				c0.8-0.9,1.9-1.4,3.3-1.4c0.8,0,1.4,0.1,2,0.4c0.5,0.3,1.1,0.7,1.6,1.2v-4c0-0.6,0.1-1,0.3-1.3c0.2-0.3,0.5-0.4,1-0.4
				c0.4,0,0.7,0.1,0.9,0.4c0.2,0.3,0.3,0.6,0.3,1.2v12c0,0.5-0.1,0.9-0.4,1.2c-0.2,0.3-0.5,0.4-0.9,0.4c-0.4,0-0.7-0.1-0.9-0.4
				C309.9,776.9,309.8,776.5,309.8,776z M304.5,772c0,0.7,0.1,1.4,0.3,1.9c0.2,0.5,0.5,0.9,0.9,1.2c0.4,0.3,0.8,0.4,1.3,0.4
				c0.5,0,0.9-0.1,1.3-0.4c0.4-0.2,0.7-0.6,0.9-1.1c0.2-0.5,0.4-1.2,0.4-1.9c0-0.7-0.1-1.3-0.4-1.9c-0.2-0.5-0.6-0.9-1-1.2
				c-0.4-0.3-0.8-0.4-1.3-0.4c-0.5,0-0.9,0.1-1.3,0.4c-0.4,0.3-0.7,0.7-0.9,1.2C304.6,770.7,304.5,771.3,304.5,772z"/>
			<path class="st0" d="M320.9,764v4.1c0.5-0.5,1-0.9,1.6-1.2c0.5-0.3,1.2-0.4,2-0.4c0.9,0,1.7,0.2,2.4,0.6c0.7,0.4,1.2,1,1.6,1.9
				c0.4,0.8,0.6,1.8,0.6,2.9c0,0.8-0.1,1.6-0.3,2.3c-0.2,0.7-0.5,1.3-0.9,1.8c-0.4,0.5-0.9,0.9-1.4,1.2c-0.6,0.3-1.2,0.4-1.9,0.4
				c-0.4,0-0.8-0.1-1.2-0.2c-0.4-0.1-0.7-0.2-0.9-0.4c-0.3-0.2-0.5-0.3-0.7-0.5c-0.2-0.2-0.4-0.4-0.7-0.8v0.3c0,0.5-0.1,0.9-0.4,1.2
				c-0.2,0.3-0.6,0.4-0.9,0.4c-0.4,0-0.7-0.1-0.9-0.4c-0.2-0.3-0.3-0.6-0.3-1.2v-11.9c0-0.5,0.1-1,0.3-1.2c0.2-0.3,0.5-0.4,0.9-0.4
				c0.4,0,0.7,0.1,1,0.4C320.8,763.2,320.9,763.5,320.9,764z M321,772.1c0,1.1,0.2,1.9,0.7,2.5c0.5,0.6,1.1,0.9,1.9,0.9
				c0.7,0,1.3-0.3,1.8-0.9c0.5-0.6,0.7-1.4,0.7-2.6c0-0.7-0.1-1.3-0.3-1.8c-0.2-0.5-0.5-0.9-0.9-1.2c-0.4-0.3-0.8-0.4-1.3-0.4
				c-0.5,0-1,0.1-1.4,0.4c-0.4,0.3-0.7,0.7-1,1.2C321.2,770.7,321,771.4,321,772.1z"/>
			<path class="st0" d="M332.5,777.9l0.2-0.6l-3.3-8.4c-0.2-0.5-0.3-0.8-0.3-1.1c0-0.2,0.1-0.4,0.2-0.6c0.1-0.2,0.3-0.4,0.5-0.5
				c0.2-0.1,0.4-0.2,0.7-0.2c0.4,0,0.7,0.1,0.9,0.4c0.2,0.2,0.4,0.6,0.5,1.1l2.3,6.7l2.2-6.2c0.2-0.5,0.3-0.9,0.5-1.2
				c0.1-0.3,0.3-0.5,0.4-0.6c0.2-0.1,0.4-0.2,0.7-0.2c0.2,0,0.4,0.1,0.6,0.2c0.2,0.1,0.3,0.3,0.4,0.4c0.1,0.2,0.2,0.4,0.2,0.6
				c0,0.1-0.1,0.3-0.1,0.5c-0.1,0.2-0.1,0.5-0.2,0.7l-3.5,9.3c-0.3,0.8-0.6,1.5-0.9,1.9c-0.3,0.5-0.7,0.8-1.2,1.1
				c-0.5,0.2-1.1,0.4-1.9,0.4c-0.8,0-1.4-0.1-1.8-0.3c-0.4-0.2-0.6-0.5-0.6-0.9c0-0.3,0.1-0.6,0.3-0.7c0.2-0.2,0.5-0.3,0.8-0.3
				c0.1,0,0.3,0,0.4,0.1c0.2,0,0.3,0.1,0.4,0.1c0.3,0,0.6,0,0.7-0.1c0.2-0.1,0.3-0.2,0.5-0.5C332.1,778.7,332.3,778.3,332.5,777.9z"
				/>
		</g>
		<g>
			<path class="st0" d="M371.8,766.8h0.6V766c0-0.9,0.1-1.5,0.3-2c0.2-0.5,0.6-0.9,1.1-1.1c0.5-0.2,1.2-0.3,2.1-0.3
				c1.6,0,2.4,0.4,2.4,1.2c0,0.2-0.1,0.5-0.2,0.6c-0.2,0.2-0.4,0.3-0.6,0.3c-0.1,0-0.3,0-0.6-0.1c-0.2,0-0.5-0.1-0.7-0.1
				c-0.5,0-0.8,0.1-0.9,0.4c-0.1,0.3-0.2,0.7-0.2,1.2v0.6h0.7c1,0,1.5,0.3,1.5,0.9c0,0.4-0.1,0.7-0.4,0.8c-0.3,0.1-0.7,0.2-1.1,0.2
				h-0.7v7.2c0,0.5-0.1,0.9-0.4,1.2c-0.3,0.3-0.6,0.4-1,0.4c-0.4,0-0.7-0.1-1-0.4c-0.3-0.3-0.4-0.7-0.4-1.2v-7.2h-0.7
				c-0.4,0-0.7-0.1-0.9-0.3c-0.2-0.2-0.3-0.4-0.3-0.7C370.4,767.1,370.9,766.8,371.8,766.8"/>
			<path class="st0" d="M380.7,773.6v2.3c0,0.5-0.1,1-0.4,1.2c-0.3,0.3-0.6,0.4-1,0.4c-0.4,0-0.7-0.1-1-0.4
				c-0.2-0.3-0.4-0.7-0.4-1.2v-7.6c0-1.2,0.4-1.8,1.3-1.8c0.5,0,0.8,0.1,1,0.4c0.2,0.3,0.3,0.7,0.3,1.3c0.3-0.6,0.7-1,1-1.3
				c0.3-0.3,0.8-0.4,1.4-0.4c0.6,0,1.1,0.1,1.7,0.4c0.5,0.3,0.8,0.7,0.8,1.1c0,0.3-0.1,0.6-0.3,0.8c-0.2,0.2-0.5,0.3-0.7,0.3
				c-0.1,0-0.3-0.1-0.7-0.2c-0.4-0.1-0.7-0.2-1-0.2c-0.4,0-0.7,0.1-1,0.3c-0.3,0.2-0.4,0.5-0.6,0.9c-0.1,0.4-0.2,0.9-0.3,1.5
				C380.7,772.1,380.7,772.8,380.7,773.6"/>
			<path class="st0" d="M393.2,772.7h-5.3c0,0.6,0.1,1.2,0.4,1.6c0.2,0.5,0.6,0.8,1,1.1c0.4,0.2,0.8,0.4,1.3,0.4
				c0.3,0,0.6,0,0.9-0.1c0.3-0.1,0.5-0.2,0.8-0.4c0.3-0.2,0.5-0.3,0.7-0.5c0.2-0.2,0.5-0.4,0.8-0.8c0.1-0.1,0.3-0.2,0.6-0.2
				c0.3,0,0.5,0.1,0.7,0.2c0.2,0.2,0.3,0.4,0.3,0.6c0,0.2-0.1,0.5-0.3,0.9c-0.2,0.3-0.5,0.6-0.9,0.9c-0.4,0.3-0.9,0.6-1.5,0.7
				c-0.6,0.2-1.3,0.3-2,0.3c-1.7,0-3.1-0.5-4.1-1.5c-1-1-1.5-2.3-1.5-4c0-0.8,0.1-1.5,0.4-2.2c0.2-0.7,0.6-1.3,1-1.8
				c0.5-0.5,1-0.9,1.7-1.1c0.7-0.3,1.4-0.4,2.2-0.4c1.1,0,2,0.2,2.7,0.7c0.8,0.4,1.3,1,1.7,1.7c0.4,0.7,0.6,1.4,0.6,2.2
				c0,0.7-0.2,1.1-0.6,1.3C394.4,772.6,393.9,772.7,393.2,772.7 M387.8,771.2h4.9c-0.1-0.9-0.3-1.6-0.7-2.1c-0.4-0.5-1-0.7-1.7-0.7
				c-0.7,0-1.2,0.2-1.7,0.7C388.2,769.6,387.9,770.3,387.8,771.2"/>
			<path class="st0" d="M404.4,772.7h-5.3c0,0.6,0.1,1.2,0.4,1.6c0.2,0.5,0.6,0.8,1,1.1c0.4,0.2,0.8,0.4,1.3,0.4
				c0.3,0,0.6,0,0.9-0.1c0.3-0.1,0.5-0.2,0.8-0.4c0.3-0.2,0.5-0.3,0.7-0.5c0.2-0.2,0.5-0.4,0.8-0.8c0.1-0.1,0.3-0.2,0.6-0.2
				c0.3,0,0.5,0.1,0.7,0.2c0.2,0.2,0.2,0.4,0.2,0.6c0,0.2-0.1,0.5-0.3,0.9c-0.2,0.3-0.5,0.6-0.9,0.9c-0.4,0.3-0.9,0.6-1.5,0.7
				c-0.6,0.2-1.3,0.3-2,0.3c-1.7,0-3.1-0.5-4.1-1.5c-1-1-1.5-2.3-1.5-4c0-0.8,0.1-1.5,0.4-2.2c0.2-0.7,0.6-1.3,1-1.8
				c0.5-0.5,1-0.9,1.7-1.1c0.7-0.3,1.4-0.4,2.2-0.4c1.1,0,2,0.2,2.7,0.7c0.8,0.4,1.3,1,1.7,1.7c0.4,0.7,0.6,1.4,0.6,2.2
				c0,0.7-0.2,1.1-0.6,1.3C405.7,772.6,405.2,772.7,404.4,772.7 M399.1,771.2h4.9c-0.1-0.9-0.3-1.6-0.7-2.1c-0.4-0.5-1-0.7-1.7-0.7
				c-0.7,0-1.2,0.2-1.7,0.7C399.5,769.6,399.2,770.3,399.1,771.2"/>
			<path class="st0" d="M410.4,768.1v0.3c0.5-0.6,1-1.1,1.6-1.4c0.5-0.3,1.2-0.4,1.9-0.4c0.8,0,1.6,0.2,2.3,0.6
				c0.7,0.4,1.3,1.1,1.7,1.9c0.4,0.8,0.6,1.8,0.6,2.9c0,0.8-0.1,1.6-0.4,2.3c-0.2,0.7-0.6,1.3-1,1.8c-0.4,0.5-0.9,0.8-1.5,1.1
				c-0.6,0.3-1.2,0.4-1.8,0.4c-0.8,0-1.4-0.2-2-0.5c-0.5-0.3-1-0.8-1.5-1.4v4.1c0,1.2-0.4,1.8-1.3,1.8c-0.5,0-0.8-0.2-1-0.5
				c-0.2-0.3-0.2-0.8-0.2-1.4v-11.7c0-0.5,0.1-0.9,0.3-1.2c0.2-0.3,0.5-0.4,0.9-0.4c0.4,0,0.7,0.1,0.9,0.4
				C410.3,767.2,410.4,767.6,410.4,768.1 M415.7,772c0-0.7-0.1-1.3-0.3-1.8c-0.2-0.5-0.5-0.9-0.9-1.2c-0.4-0.3-0.8-0.4-1.3-0.4
				c-0.7,0-1.4,0.3-1.9,0.9c-0.5,0.6-0.8,1.5-0.8,2.6c0,1.1,0.3,1.9,0.8,2.5c0.5,0.6,1.1,0.9,1.9,0.9c0.4,0,0.9-0.1,1.3-0.4
				c0.4-0.3,0.7-0.7,0.9-1.2C415.6,773.4,415.7,772.7,415.7,772"/>
			<path class="st0" d="M421.2,765.3c-0.4,0-0.7-0.1-1-0.3c-0.3-0.2-0.4-0.6-0.4-1c0-0.4,0.1-0.7,0.4-1c0.3-0.2,0.6-0.4,1-0.4
				c0.4,0,0.7,0.1,0.9,0.3c0.3,0.2,0.4,0.6,0.4,1c0,0.4-0.1,0.7-0.4,1C421.9,765.1,421.5,765.3,421.2,765.3 M422.5,768.1v7.9
				c0,0.5-0.1,0.9-0.4,1.2c-0.3,0.3-0.6,0.4-1,0.4c-0.4,0-0.7-0.1-1-0.4c-0.2-0.3-0.4-0.7-0.4-1.2v-7.8c0-0.5,0.1-0.9,0.4-1.2
				c0.3-0.3,0.6-0.4,1-0.4c0.4,0,0.7,0.1,1,0.4C422.4,767.2,422.5,767.6,422.5,768.1"/>
			<path class="st0" d="M431.3,776.3l-2.4-3.9l-1.5,1.4v2.2c0,0.5-0.1,0.9-0.4,1.2c-0.3,0.3-0.6,0.4-0.9,0.4c-0.4,0-0.7-0.1-1-0.4
				c-0.2-0.3-0.4-0.7-0.4-1.2v-11.6c0-0.6,0.1-1.1,0.3-1.4c0.2-0.3,0.6-0.5,1-0.5c0.4,0,0.7,0.1,1,0.4c0.2,0.3,0.4,0.7,0.4,1.3v6.6
				l3.1-3.2c0.4-0.4,0.7-0.7,0.9-0.8c0.2-0.1,0.4-0.2,0.7-0.2c0.3,0,0.6,0.1,0.9,0.3c0.2,0.2,0.3,0.5,0.3,0.8c0,0.4-0.4,0.9-1.1,1.6
				l-1.4,1.3l2.8,4.4c0.2,0.3,0.4,0.6,0.4,0.7c0.1,0.2,0.1,0.3,0.1,0.5c0,0.4-0.1,0.8-0.4,1c-0.2,0.2-0.5,0.4-0.9,0.4
				c-0.3,0-0.6-0.1-0.8-0.3C431.8,777.1,431.6,776.8,431.3,776.3"/>
			<path class="st0" d="M437.2,777.6c-0.4,0-0.8-0.1-1.1-0.4c-0.3-0.3-0.4-0.6-0.4-1.1c0-0.4,0.1-0.8,0.4-1c0.3-0.3,0.6-0.4,1.1-0.4
				c0.4,0,0.8,0.1,1.1,0.4c0.3,0.3,0.4,0.6,0.4,1c0,0.5-0.2,0.8-0.4,1.1C437.9,777.4,437.6,777.6,437.2,777.6"/>
			<path class="st0" d="M450.7,774.2c0,0.3-0.1,0.7-0.3,1.1c-0.2,0.4-0.5,0.8-0.9,1.1c-0.4,0.3-0.9,0.6-1.6,0.8
				c-0.6,0.2-1.3,0.3-2.1,0.3c-1.7,0-3-0.5-3.9-1.5c-0.9-1-1.4-2.3-1.4-3.9c0-1.1,0.2-2.1,0.6-3c0.4-0.9,1.1-1.5,1.9-2
				c0.8-0.5,1.8-0.7,2.9-0.7c0.7,0,1.3,0.1,1.9,0.3c0.6,0.2,1.1,0.5,1.5,0.8c0.4,0.3,0.7,0.7,0.9,1c0.2,0.4,0.3,0.7,0.3,1
				c0,0.3-0.1,0.6-0.4,0.8c-0.2,0.2-0.5,0.3-0.9,0.3c-0.2,0-0.4-0.1-0.6-0.2c-0.2-0.1-0.3-0.3-0.5-0.6c-0.3-0.5-0.7-0.9-1-1.1
				c-0.4-0.3-0.8-0.4-1.4-0.4c-0.8,0-1.5,0.3-1.9,0.9c-0.5,0.6-0.7,1.5-0.7,2.6c0,0.5,0.1,1,0.2,1.4c0.1,0.4,0.3,0.8,0.5,1.1
				c0.2,0.3,0.5,0.5,0.9,0.7c0.3,0.2,0.7,0.2,1.1,0.2c0.5,0,1-0.1,1.4-0.4c0.4-0.3,0.7-0.6,1-1.2c0.2-0.3,0.3-0.5,0.5-0.7
				c0.2-0.2,0.4-0.3,0.7-0.3c0.3,0,0.6,0.1,0.8,0.4C450.6,773.7,450.7,773.9,450.7,774.2"/>
			<path class="st0" d="M462.4,772c0,0.8-0.1,1.6-0.4,2.2c-0.3,0.7-0.6,1.3-1.1,1.8c-0.5,0.5-1,0.9-1.7,1.1
				c-0.7,0.3-1.4,0.4-2.2,0.4c-0.8,0-1.6-0.1-2.2-0.4c-0.7-0.3-1.2-0.6-1.7-1.1c-0.5-0.5-0.8-1.1-1.1-1.8c-0.2-0.7-0.4-1.4-0.4-2.2
				c0-0.8,0.1-1.6,0.4-2.3c0.3-0.7,0.6-1.3,1.1-1.8c0.5-0.5,1-0.9,1.7-1.1c0.7-0.3,1.4-0.4,2.2-0.4c0.8,0,1.6,0.1,2.2,0.4
				c0.7,0.3,1.2,0.6,1.7,1.1c0.5,0.5,0.8,1.1,1.1,1.8C462.3,770.5,462.4,771.2,462.4,772 M459.7,772c0-1.1-0.2-2-0.7-2.6
				c-0.5-0.6-1.1-0.9-2-0.9c-0.5,0-1,0.1-1.4,0.4c-0.4,0.3-0.7,0.7-0.9,1.2c-0.2,0.5-0.3,1.2-0.3,1.9c0,0.7,0.1,1.3,0.3,1.9
				c0.2,0.5,0.5,0.9,0.9,1.2c0.4,0.3,0.9,0.4,1.4,0.4c0.8,0,1.5-0.3,2-0.9C459.4,774,459.7,773.1,459.7,772"/>
			<path class="st0" d="M472.7,772.2v3.6c0,0.6-0.1,1-0.4,1.3c-0.3,0.3-0.6,0.4-1,0.4c-0.4,0-0.8-0.1-1-0.4
				c-0.3-0.3-0.4-0.7-0.4-1.3v-4.3c0-0.7,0-1.2-0.1-1.6c0-0.4-0.2-0.7-0.4-0.9c-0.2-0.2-0.5-0.4-1-0.4c-0.9,0-1.5,0.3-1.8,0.9
				c-0.3,0.6-0.4,1.5-0.4,2.6v3.7c0,0.6-0.1,1-0.4,1.3c-0.3,0.3-0.6,0.4-1,0.4c-0.4,0-0.8-0.1-1-0.4c-0.3-0.3-0.4-0.7-0.4-1.3v-7.8
				c0-0.5,0.1-0.9,0.4-1.2c0.2-0.3,0.5-0.4,0.9-0.4c0.4,0,0.7,0.1,0.9,0.4c0.2,0.3,0.4,0.6,0.4,1v0.3c0.5-0.6,1-1,1.5-1.2
				c0.5-0.3,1.1-0.4,1.8-0.4c0.7,0,1.3,0.1,1.8,0.4c0.5,0.3,0.9,0.7,1.2,1.2c0.5-0.6,1-1,1.5-1.2c0.5-0.3,1.1-0.4,1.7-0.4
				c0.7,0,1.4,0.2,1.9,0.4c0.5,0.3,0.9,0.7,1.2,1.2c0.2,0.5,0.3,1.3,0.3,2.3v5.3c0,0.6-0.1,1-0.4,1.3c-0.3,0.3-0.6,0.4-1,0.4
				c-0.4,0-0.7-0.1-1-0.4c-0.3-0.3-0.4-0.7-0.4-1.3v-4.6c0-0.6,0-1-0.1-1.4c0-0.4-0.2-0.6-0.4-0.9c-0.2-0.2-0.6-0.4-1-0.4
				c-0.4,0-0.7,0.1-1,0.3c-0.3,0.2-0.6,0.5-0.8,0.8C472.8,770.3,472.7,771.1,472.7,772.2"/>
		</g>
		<g>
			<path class="st0" d="M346.4,771.4C346.4,771.4,346.4,771.4,346.4,771.4C346.4,771.4,346.4,771.4,346.4,771.4z"/>
			<path class="st0" d="M346.5,772.3C346.5,772.3,346.5,772.3,346.5,772.3c0-0.2-0.1-0.5-0.1-0.7C346.4,771.8,346.5,772,346.5,772.3
				z"/>
			<path class="st0" d="M347.4,774.8C347.4,774.8,347.4,774.8,347.4,774.8C347.4,774.8,347.4,774.8,347.4,774.8z"/>
			<path class="st0" d="M347.3,774.6c0,0,0-0.1-0.1-0.1C347.3,774.5,347.3,774.6,347.3,774.6z"/>
			<path class="st0" d="M346.8,773.2c0.1,0.4,0.3,0.8,0.5,1.2C347.1,774,346.9,773.6,346.8,773.2
				C346.8,773.2,346.8,773.2,346.8,773.2z"/>
			<path class="st0" d="M356.9,761c0.5,0,0.9,0,1.4,0.1l0.1-0.8c0,0-1.2-0.4-2.8-0.2l-0.1-0.4c0.5-0.1,0.9-0.5,0.9-1.1
				c0-0.6-0.5-1.1-1.1-1.1c-0.6,0-1.1,0.5-1.1,1.1c0,0.5,0.4,1,0.9,1.1l0.1,0.5c-1.7,0.2-3.1,0.9-3.1,0.9l0.2,0.7
				c1-0.3,1.9-0.6,2.7-0.6C355.8,761,356.4,761,356.9,761z"/>
			<path class="st0" d="M347.4,765L347.4,765c0-0.1,0.1-0.1,0.1-0.2l-0.3-0.2l-0.5-0.4c0,0-0.8,0.8-1.5,2.1c0,0-0.1-0.1-0.1-0.1
				c-0.2-0.2-0.5-0.3-0.8-0.3c0,0,0,0,0,0c-0.2,0-0.4-0.1-0.4-0.2c0.1-0.1,0.2-0.3,0.2-0.4c0-0.4-0.3-0.7-0.7-0.7
				c-0.4,0-0.7,0.3-0.7,0.7c0,0.4,0.3,0.7,0.7,0.7c0.1,0,0.1,0,0.2,0c0.2,0.2,0.4,0.4,0.8,0.3c0.2,0,0.4,0.1,0.5,0.2
				c0.1,0.1,0.2,0.3,0.2,0.4c0,0,0,0,0,0c-0.5,1.2-0.3,2.8-0.3,2.8l1.1,0c0-0.6,0.1-1.6,0.4-2.3C346.7,766,347.4,765.1,347.4,765z"
				/>
			<path class="st0" d="M366.5,761.9c-0.4,0-0.7,0.3-0.7,0.7c0,0.1,0,0.1,0,0.2c-0.2,0.2-0.4,0.4-0.4,0.8c0,0.2-0.1,0.4-0.2,0.5
				c-0.1,0.1-0.2,0.1-0.3,0.1c-0.8-1.2-1.8-1.9-1.8-1.9l-0.8,0.9c0.6,0.5,1.2,1.2,1.8,2.1c0.4,0.6,0.8,1.4,1.2,2.1l1.1-0.5
				c0,0-0.5-1.2-1.2-2.3c0.1,0,0.2-0.1,0.3-0.2c0.2-0.2,0.3-0.5,0.3-0.8c0-0.2,0.1-0.4,0.2-0.5c0.1,0.1,0.3,0.1,0.4,0.1
				c0.4,0,0.7-0.3,0.7-0.7S366.9,761.9,366.5,761.9z"/>
			<path class="st0" d="M363.7,771.5c-1.5,0.7-3.9,1.7-7.1,2.1c-1.3,0.2-2.5,0.2-3.6,0.2c-1.5,0-2.7-0.1-3.7-0.2
				c-1.1-0.1-2-0.3-2.5-0.4c0.1,0.4,0.3,0.8,0.5,1.2c0,0,0,0,0,0c0,0,0,0.1,0.1,0.1c0,0,0,0.1,0.1,0.1c0,0,0,0,0,0
				c0.3,0.6,0.7,1.1,1.1,1.6c1.5,1.7,3,1.9,3.1,1.9l0,0l0,0c0,0,1.4,0.4,3.4,0.4c2,0,4-0.4,5.9-1.2c1.4-0.7,2.7-1.8,3.4-2.8
				c0.5-0.8,0.9-1.6,1.1-2.4c0.1-0.4,0.2-1.2,0.2-1.9C365.3,770.7,364.6,771.1,363.7,771.5z"/>
			<path class="st0" d="M347.9,765.4c0,0.1-0.7,1-1.2,2.4c-0.4,1-0.4,2.6-0.4,2.6v0c0,0.4,0,0.7,0.1,1.1c0,0,0,0,0,0
				c0,0,0,0.1,0,0.1c0,0.2,0.1,0.5,0.1,0.7c0.7,0.2,5.1,1.2,10,0.5c3.1-0.4,5.4-1.3,6.8-2c1.2-0.6,1.9-1.1,2.2-1.3
				c-0.3-1.1-1.1-2.8-1.8-3.8c-2.1-3-4.4-3.8-5.5-4c-0.4-0.1-0.8-0.1-1.3-0.1c-0.5,0-1,0-1.8,0.1c-0.8,0.1-1.6,0.3-2.7,0.6
				c-1.4,0.5-2.7,1.2-3.7,2.1l0,0C348.5,764.6,348.2,764.9,347.9,765.4z M360.7,764.7c1,0,1.8,0.8,1.8,1.8c0,1-0.8,1.8-1.8,1.8
				c-1,0-1.8-0.8-1.8-1.8C358.9,765.5,359.7,764.7,360.7,764.7z M352.1,764.6c1.6,0,2.9,1.3,2.9,2.9c0,1.6-1.3,2.9-2.9,2.9
				c-1.6,0-2.9-1.3-2.9-2.9C349.1,765.9,350.5,764.6,352.1,764.6z"/>
		</g>
	</g>
	<polygon class="st1" points="706.4,190.5 0,190.5 38.5,180.7 38.5,132.4 45.6,129.4 56.2,133.5 56.2,175.2 63.8,175.2 63.8,162.4 
		67.9,162.4 67.9,171.1 80.2,171.1 80.2,157.5 82.4,157.5 82.4,141.4 89.5,141.4 89.5,157.2 93,157.2 93,166.8 97.9,166.8 
		97.9,132.9 100.1,132.9 100.1,129.4 108,129.4 113.5,134.9 113.5,161.3 116.7,161.3 116.7,150.7 119.7,150.7 119.7,144.9 
		123,144.9 123,127.2 129,127.2 129,122.9 133.1,122.9 133.1,127.8 139.4,127.8 139.4,156.7 143.5,156.7 143.5,136.5 150.6,136.5 
		158.7,128.3 162.8,128.3 162.8,152.3 166.7,152.3 166.7,134.9 170.5,134.9 170.5,156.7 177.4,163.6 177.4,140.6 190.4,134 
		190.4,101.3 196.1,101.3 200.2,113.9 200.2,68 211.7,68 211.7,39.7 213.8,39.7 213.8,68.3 219,68.3 219,144.7 223.7,144.7 
		223.7,121.5 227.5,121.5 227.5,144.7 232.1,144.7 232.1,120.7 235.9,115.1 240.3,115.1 240.3,120.7 244.1,120.7 244.1,107.9 
		247.4,101 253.9,101 256.9,108.7 256.9,140.6 262.1,140.6 262.1,125.6 265.1,125.6 265.1,140 268.1,140 268.1,157.5 271.9,157.5 
		271.9,131.3 277.4,131.3 277.4,90.7 281.2,90.7 281.2,87.9 290.2,87.9 290.2,90.1 294.6,90.1 294.6,124.5 296.8,124.5 296.8,143.3 
		299.6,146.2 299.6,153.7 303.3,153.7 303.3,115.1 305.8,115.1 311.3,109.6 316.7,114.9 320.2,114.9 320.2,147.4 327,147.4 
		327,132.7 334.1,132.7 334.1,128.3 350.2,128.3 350.2,132.9 360.9,132.9 360.9,148.8 363.6,148.8 363.6,140.3 371.2,132.7 
		378,132.7 378,158.6 381.6,158.6 381.6,142.2 388.9,134.9 396.3,134.9 396.3,153.7 399.3,153.7 399.3,164 402.9,164 402.9,153.7 
		410.2,153.7 415.5,148.4 422.2,148.4 422.2,159.1 426.9,159.1 426.9,147.9 432,147.9 432,142.8 458.2,142.8 458.2,154.8 462,154.8 
		462,160.2 465.6,160.2 465.6,166.5 469.7,166.5 469.7,131 487.1,131 487.1,166.8 491,166.8 491,153.7 494.5,150.1 494.5,164.3 
		499.1,164.3 499.1,144.4 502.4,144.4 502.4,113.3 508.7,113.3 508.7,144.1 513.3,144.1 513.3,148.5 520.7,148.5 520.7,158.9 
		524.5,158.9 524.5,155.6 531.1,155.6 531.1,167 534.9,167 534.9,155 539,150.9 539,164.3 542.5,164.3 542.5,146.3 549.6,146.3 
		549.6,161 557.2,168.7 563,168.7 563,163.5 565.1,163.5 565.1,168.9 568.7,168.9 568.7,160.2 577.7,160.2 577.7,169.2 584,169.2 
		584,166.8 586.4,166.8 586.4,164.9 588.6,164.9 588.6,167.3 591.1,167.3 591.1,172.2 594.9,172.2 594.9,164.3 601.7,164.3 
		601.7,157.8 603.9,157.8 603.9,163.2 606.1,163.2 606.1,154.8 612.6,154.8 613.8,156 615.6,156 615.6,152.6 621.1,152.6 
		621.1,169.2 627.1,169.2 627.1,162.7 631.2,162.7 631.2,159.7 648.9,159.7 648.9,163.5 651.3,163.5 651.3,167.6 654.9,167.6 
		654.9,161.9 657.3,161.9 657.3,155 660.6,155 660.6,159.4 670.7,159.4 670.7,166.2 674.3,166.2 674.3,171.7 678.6,171.7 
		678.6,175.5 682.7,175.5 682.7,170 684.6,170 684.6,161.9 688.7,161.9 688.7,179.6 	"/>
</g>
</svg>
