<?xml version="1.0" encoding="utf-8"?>
<!-- Generator: Adobe Illustrator 19.0.0, SVG Export Plug-In . SVG Version: 6.00 Build 0)  -->
<svg version="1.1" id="Layer_1" xmlns="http://www.w3.org/2000/svg" xmlns:xlink="http://www.w3.org/1999/xlink" x="0px" y="0px"
	 viewBox="0 0 1498 760" style="enable-background:new 0 0 1498 760;" xml:space="preserve">
<style type="text/css">
	.st0{fill:#FFFFFF;}
	.st1{opacity:0.1; fill:#AAAAAA}
</style>
<path class="st0" d="M1670,1054c0-186.3,0-372.6,0-558.9c500,0,1000,0,1500,0c0,185.4,0,370.6,0,555.9c-0.2-1.1-0.5-2.2-0.6-3.3
	c-0.6-10-0.6-10-10.9-9.6c-7.8,0.3-15.5,0.8-23.8,1.2c2-11.6,3.9-22.5,5.8-33.7c-4.9-0.7-9.2-1.3-14-1.9c0.6-57.8,1.2-115.4,1.8-173
	c-13.6,0-26.4,0-39.7,0c-0.7-24.7-1.4-49.4-2.1-74.6c-5.1,0.4-9.7,0.8-14.5,1.2c1,25.2,2,49.9,3.1,75.1c-11.7,0-22.6,0-33.7,0
	c1,25.4,2,50.3,3.1,75.8c-5.4,0-10.2,0-15.4,0c1.7,33.3,3.3,65.9,5,99.1c-4.3,0-7.9,0-11.9,0c-0.3,6-0.8,11.6-0.9,17.3
	c-0.1,2.9-0.6,5-3.9,5.1c-3.1,0.1-3.6,1.8-3.5,4.7c0.2,6.8,0.1,13.6,0.1,20.4c-8.8,1.3-9.1,1-9-7.7c0.2-14.2,0.4-28.3,0.5-42.5
	c0.1-4.7,0-9.5,0-14.1c-2.5-0.5-4.4-0.9-6.7-1.4c0.5-6.9,0.8-13.6,1.6-20.1c0.1-1.1,2.2-2.5,3.6-2.7c2.9-0.4,5.8-0.1,8.8-0.1
	c0.3-4.8,0.6-8.8,0.9-13c-1.5-0.1-2.8-0.5-4-0.3c-5.9,0.9-9.9-1.4-13.6-6c-6.3-7.9-13.2-15.4-20.1-22.9c-1.6-1.7-4.1-2.5-7.3-4.4
	c0,5.2,0,8.6,0,12.5c-4.7-0.4-8.7-0.7-12.8-1c0-3.4,0-6.1,0-9.2c-6.3,3.4-12.2,6.5-18.7,9.9c-2.1-60.9-4.2-120.7-6.3-180.6
	c-9.3-0.4-16.3,1.4-22.3,9.5c-15.6,21-32.4,41.1-48.5,61.6c-2.1,2.6-4.2,3.8-7.5,3.7c-5.8-0.2-11.5,0-17.9,0
	c0.7,52.3,1.3,103.4,2,155.1c-9-0.9-17.5-1.7-26.4-2.6c-0.7-27.8-1.5-55.2-2.2-82.5c-6,0-11.2,0-16.6,0c-0.5,3.6-1.3,6.9-1.3,10.2
	c-0.1,3.8-1.9,4.6-5.3,4.7c-11.7,0.3-23.3,0.8-35,1.3c-1.4,0.1-2.8,0.4-4.4,0.6c1.4,27.8,2.7,55.2,4,82.6c-4.3,0.8-8.1,1.4-11.8,2.1
	c0,5.9,0,11.5,0,17.1c-3.5,0-6.8,0-10.6,0c0-14.5,0-28.6,0-43c-3.9,0-7.3,0-11.1,0c0-8.7,0-17.1,0-26.6c-18.9,0-37.3,0-56.2,0
	c0-2.9,0-4.7,0-6.5c0-22.8,0-45.7,0-68.5c0-8.1,0-8.1-7.9-10.2c-0.3-0.1-0.5-0.4-1-0.8c0.2-2.7,0.3-5.7,0.5-8.9
	c-2.4-0.2-4.7-0.5-7.1-0.7c-0.6-5.8-1.3-11.2-1.5-16.7c-0.2-3.6-1.7-5.1-5.2-4.8c-2.4,0.2-4.9,0-7.2,0c0,7.1,0,13.8,0,20.6
	c-2.9,0.1-5.5,0.2-8.6,0.4c-0.3,3.1,0.3,6.6-1.1,8.8c-1.3,2-4.7,2.7-8.2,4.5c-1,29.1-2,59.5-3.1,89.9c-3.7,0-6.7,0-10.8,0
	c0-86.7,0-172.9,0-259.8c-35.5,0-69.9,0-104.8,0c4.4,94.9,8.8,189.9,13.3,284.5c-6.3,0-12.1-0.1-17.9,0c-1.2,0-3.4,0.4-3.5,0.9
	c-0.9,4.3-4.1,3-6.7,3c-2.1,0-4.2,0-7,0c0,7.1,0,14,0,20.8c-4.3,0.4-7.9,0.8-11.9,1.2c-0.7,7.7-1.3,15.1-2,22.5
	c-0.1,1.3-0.9,2.6-1.5,3.9c-0.8,1.7-2.4,3.4-2.5,5.2c-0.3,6.3-0.1,12.5-0.1,19.2c-4.7-0.7-8.8-1.3-12.6-1.8c0-10.7,0-20.7,0-30.8
	c-8,0-15.8,0-24.8,0c0-18.4,0-36.6,0-55c-7.3,0.3-13.4,0.6-19.6,0.9c-0.8-6.8-1.5-13.1-2.3-19.9c-9.3,0-18.2,0-27.7,0
	c-1.1,6.6-2.2,13.6-3.3,20.6c-7,0.4-13.5,0.8-19.9,1.2c0,21.1,0,41.5,0,62.4c-5.3-0.6-10.3-1.2-15.2-1.7c0-8.2,0-15.7,0-23.2
	c-2-0.2-3.6-0.4-5.5-0.7c-1.4-28.2-2.8-56-4.2-84.3c-47.6,1.2-94.7,2.4-142.5,3.6c0,5.2,0,9.8,0,14.5c-0.2,19.2-0.3,38.3-0.6,57.5
	c-0.1,8.3-0.3,8.3-8.3,9.3c-0.3,0-0.5,0.3-1.1,0.7c-0.3,5.7-0.6,11.6-0.9,17.7c-2.9,0-5.3,0-8.3,0c0-14.6,0-28.8,0-43.6
	c-4,0-7.4,0-11,0c1.4-31.2,2.7-61.7,4.1-92.4c-3-0.3-5.4-0.5-8.1-0.8c0-3,0-5.6,0-8.2c0.3-24.8,0.4-49.7,1-74.5
	c0.1-5.7-1.2-10-5.4-13.6c-4.7-4-6.8-8.9-6.8-15.3c-0.2-19.7-8.6-36.3-20.3-51.6c-1.3-1.7-2.2-4.1-2.2-6.2c-0.1-6.5,0.5-13,0.6-19.5
	c0-1.3-0.6-3.6-1.2-3.7c-4.2-0.5-3.7-3.6-3.7-6.3c-0.1-4,0-8-0.2-12c-0.3-8.1-0.6-16.2-0.9-24.1c-2.7,0-4.7,0-7,0
	c0,13.2,0,26.1,0,38.9c0,1.4-0.2,3.9-0.8,4.1c-4.6,1.3-3.1,4.8-2.9,7.7c0.3,5.2,0.9,10.3,1.2,15.4c0.1,1.4,0,3.2-0.8,4.1
	c-11.5,13.2-15.5,29.2-17.6,45.9c-1.4,10.9-1.4,21.9-10.9,29.8c-1.1,1-1.1,3.7-1.1,5.6c0.3,25.7,0.6,51.3,0.9,77
	c0.1,7.5,0.2,7.5-6.9,9.5c-0.3,0.1-0.5,0.3-1.3,0.9c0,25,0,50.4,0,76c-9.8,1-19,1.9-28.5,2.8c-0.7,13.5-1.4,26.6-2,39.8
	c-4.6,0-8.6,0-12.9,0c0.3-4.5,0.5-8.6,0.8-13.3c-8.3,1.6-7.5-4-7.7-8.8c-0.5-9.5-0.9-19-1.5-28.4c-0.3-5.3-0.7-10.5-1.1-15.6
	c-6.5,0-12.5-0.2-18.5,0.1c-3,0.2-4.2-0.5-4.5-3.5c-0.6-5.2-1.7-10.4-2.7-16.2c-9,0-17.6,0-26.6,0c-0.4,6.1-0.8,12.3-1.2,19.1
	c-6.6,0-12.7,0-19.2,0c-0.8,22.2-1.5,43.9-2.2,65.9c-2.9,0.2-5.3,0.4-8,0.6c-1.1,8.2-2.1,16.2-3.3,24.7c-4.3-0.3-8.3-1-12.2-0.7
	c-5.3,0.4-6.3-2-6.4-6.7c-0.1-4.1,2.2-9.8-4.8-11.4c-0.5-0.1-0.7-2.7-0.6-4.1c0.4-11.2,1-22.3,1.4-33.5c0.3-9,0.3-9-7.7-12.1
	c1.3-69.6,2.6-139.3,3.9-209.6c-4.4,0-8.2,0-12.2,0c-1-15.2-2.1-29.9-3.1-44.9c-4.4,0-8,0-12.1,0c-1.1-19-2.1-37.7-3.2-56.7
	c-3.9,0.4-7.3,0.8-11.1,1.2c-0.2-3.6-0.3-6.8-0.5-10.2c-5.2-0.4-9.9-0.7-15.8-1.2c0-14.1,0-27.8,0-41.5c-3.1,0-5,0-7.4,0
	c-0.5-12.8-1.1-25.4-1.6-38c-0.8-21.6-1.6-43.3-2.4-64.9c-0.1-2.5-0.3-5.1-5-4.5c0,34.6,0,69.2,0,103.7c-2.5,0.6-4,0.9-6,1.4
	c0,15.3,0,30.4,0,45.8c-4.2,0-7.8,0-11.7,0c-0.5,4-1,7.7-1.5,11.5c-2.7,0.2-5,0.3-7.9,0.5c0,17.8,0,35.3,0,53.1
	c-5.5,0.5-10.4,0.9-15.3,1.4c0.6,16,1.3,31.3,1.9,46.9c-4.6,0.2-8.3,0.4-12.2,0.6c2.8,66.9,5.5,133.2,8.3,199.7
	c-3.7,0.5-6.6,1-9.6,1.2c-2.6,0.2-3.9,0.9-3.8,3.9c0.3,7.5,0.3,15,0.4,22.5c0.2,18.7,0.5,37.3,0.6,56c0,1.1-1.5,3.1-2.4,3.2
	c-3.4,0.4-6.8,0.2-10.4,0.2c0.9-8.9,1.8-17.4,2.7-26.1c-3.9-0.7-7.3-1.3-11.1-2c-0.6-43.5-1.3-86.7-1.9-129.5c-21.2,0-41.8,0-62.2,0
	c0,5.8-0.1,10.7,0,15.7c1.1,47,2.3,93.9,3.4,140.9C1677.2,1053.6,1677.2,1053.6,1670,1054z"/>
<path class="st1" d="M0,689c7.2-0.4,7.2-0.4,7-7.3c-1.1-47-2.3-93.9-3.4-140.9c-0.1-5,0-9.9,0-15.7c20.4,0,41,0,62.2,0
	c0.6,42.9,1.3,86.1,1.9,129.5c3.9,0.7,7.2,1.3,11.1,2c-0.9,8.7-1.8,17.2-2.7,26.1c3.6,0,7,0.2,10.4-0.2c1-0.1,2.4-2.1,2.4-3.2
	c-0.1-18.7-0.4-37.3-0.6-56c-0.1-7.5-0.1-15-0.4-22.5c-0.1-2.9,1.3-3.7,3.8-3.9c3-0.2,5.9-0.8,9.6-1.2
	c-2.8-66.5-5.5-132.8-8.3-199.7c3.9-0.2,7.6-0.4,12.2-0.6c-0.6-15.5-1.2-30.9-1.9-46.9c4.9-0.4,9.8-0.9,15.3-1.4
	c0-17.7,0-35.3,0-53.1c2.9-0.2,5.2-0.3,7.9-0.5c0.5-3.8,1-7.5,1.5-11.5c3.9,0,7.5,0,11.7,0c0-15.4,0-30.5,0-45.8
	c2-0.5,3.5-0.8,6-1.4c0-34.5,0-69.1,0-103.7c4.7-0.5,4.9,2,5,4.5c0.8,21.6,1.5,43.3,2.4,64.9c0.5,12.6,1.1,25.2,1.6,38
	c2.4,0,4.3,0,7.4,0c0,13.7,0,27.4,0,41.5c5.8,0.4,10.6,0.8,15.8,1.2c0.2,3.4,0.3,6.6,0.5,10.2c3.7-0.4,7.1-0.8,11.1-1.2
	c1.1,19,2.1,37.7,3.2,56.7c4.2,0,7.8,0,12.1,0c1,15,2.1,29.7,3.1,44.9c4.1,0,7.8,0,12.2,0c-1.3,70.3-2.6,140-3.9,209.6
	c8,3.1,8,3.1,7.7,12.1c-0.4,11.2-1,22.3-1.4,33.5c-0.1,1.4,0.1,4,0.6,4.1c7,1.6,4.7,7.3,4.8,11.4c0.2,4.7,1.1,7.1,6.4,6.7
	c3.9-0.3,7.9,0.4,12.2,0.7c1.1-8.4,2.2-16.5,3.3-24.7c2.7-0.2,5.1-0.4,8-0.6c0.7-21.9,1.5-43.6,2.2-65.9c6.6,0,12.7,0,19.2,0
	c0.4-6.7,0.8-13,1.2-19.1c9.1,0,17.6,0,26.6,0c1,5.7,2.1,10.9,2.7,16.2c0.4,3.1,1.5,3.7,4.5,3.5c6-0.3,11.9-0.1,18.5-0.1
	c0.3,5,0.8,10.3,1.1,15.6c0.5,9.5,1,19,1.5,28.4c0.2,4.8-0.6,10.4,7.7,8.8c-0.3,4.8-0.5,8.9-0.8,13.3c4.3,0,8.4,0,12.9,0
	c0.7-13.2,1.3-26.3,2-39.8c9.5-0.9,18.7-1.9,28.5-2.8c0-25.5,0-50.9,0-76c0.8-0.6,1.1-0.8,1.3-0.9c7.1-2,7-2,6.9-9.5
	c-0.4-25.7-0.7-51.3-0.9-77c0-1.9,0-4.6,1.1-5.6c9.5-7.9,9.6-19,10.9-29.8c2.1-16.7,6.1-32.7,17.6-45.9c0.8-0.9,0.8-2.7,0.8-4.1
	c-0.3-5.2-0.9-10.3-1.2-15.4c-0.2-2.9-1.7-6.4,2.9-7.7c0.6-0.2,0.8-2.7,0.8-4.1c0.1-12.8,0-25.6,0-38.9c2.3,0,4.4,0,7,0
	c0.3,8,0.7,16.1,0.9,24.1c0.1,4,0.1,8,0.2,12c0.1,2.7-0.5,5.8,3.7,6.3c0.6,0.1,1.2,2.4,1.2,3.7c-0.1,6.5-0.6,13-0.6,19.5
	c0,2.1,0.9,4.5,2.2,6.2c11.7,15.3,20.1,31.9,20.3,51.6c0.1,6.3,2.1,11.3,6.8,15.3c4.2,3.6,5.6,7.9,5.4,13.6
	c-0.6,24.8-0.7,49.6-1,74.5c0,2.6,0,5.3,0,8.2c2.7,0.3,5.1,0.5,8.1,0.8c-1.4,30.7-2.7,61.3-4.1,92.4c3.7,0,7.1,0,11,0
	c0,14.8,0,29.1,0,43.6c3,0,5.4,0,8.3,0c0.3-6,0.6-12,0.9-17.7c0.6-0.4,0.8-0.7,1.1-0.7c8-1,8.2-1,8.3-9.3
	c0.3-19.2,0.4-38.3,0.6-57.5c0-4.6,0-9.3,0-14.5c47.8-1.2,94.8-2.4,142.5-3.6c1.4,28.3,2.8,56.1,4.2,84.3c1.9,0.2,3.5,0.4,5.5,0.7
	c0,7.5,0,15,0,23.2c4.8,0.5,9.9,1.1,15.2,1.7c0-20.9,0-41.3,0-62.4c6.3-0.4,12.9-0.8,19.9-1.2c1.1-7,2.3-14,3.3-20.6
	c9.5,0,18.4,0,27.7,0c0.8,6.8,1.5,13,2.3,19.9c6.2-0.3,12.3-0.6,19.6-0.9c0,18.4,0,36.6,0,55c9,0,16.8,0,24.8,0
	c0,10.1,0,20.2,0,30.8c3.8,0.5,7.8,1.1,12.6,1.8c0-6.7-0.2-12.9,0.1-19.2c0.1-1.8,1.6-3.4,2.5-5.2c0.6-1.3,1.4-2.5,1.5-3.9
	c0.8-7.4,1.4-14.9,2-22.5c4-0.4,7.6-0.7,11.9-1.2c0-6.8,0-13.7,0-20.8c2.8,0,4.9,0,7,0c2.6,0,5.8,1.4,6.7-3c0.1-0.5,2.3-0.9,3.5-0.9
	c5.8-0.1,11.6,0,17.9,0c-4.4-94.6-8.8-189.5-13.3-284.5c34.9,0,69.3,0,104.8,0c0,86.9,0,173.1,0,259.8c4.1,0,7.1,0,10.8,0
	c1-30.4,2.1-60.8,3.1-89.9c3.5-1.8,6.9-2.5,8.2-4.5c1.4-2.2,0.8-5.7,1.1-8.8c3.1-0.1,5.8-0.3,8.6-0.4c0-6.9,0-13.6,0-20.6
	c2.3,0,4.8,0.1,7.2,0c3.6-0.3,5.1,1.2,5.2,4.8c0.3,5.5,1,10.9,1.5,16.7c2.4,0.2,4.6,0.4,7.1,0.7c-0.2,3.2-0.4,6.1-0.5,8.9
	c0.5,0.4,0.8,0.7,1,0.8c7.9,2.1,7.9,2.1,7.9,10.2c0,22.8,0,45.7,0,68.5c0,1.8,0,3.6,0,6.5c18.9,0,37.3,0,56.2,0c0,9.5,0,17.9,0,26.6
	c3.9,0,7.3,0,11.1,0c0,14.4,0,28.5,0,43c3.8,0,7.1,0,10.6,0c0-5.7,0-11.2,0-17.1c3.7-0.7,7.4-1.3,11.8-2.1
	c-1.3-27.4-2.7-54.8-4-82.6c1.6-0.2,3-0.6,4.4-0.6c11.6-0.5,23.3-1,35-1.3c3.4-0.1,5.2-0.8,5.3-4.7c0-3.3,0.8-6.6,1.3-10.2
	c5.4,0,10.6,0,16.6,0c0.7,27.3,1.5,54.7,2.2,82.5c8.9,0.9,17.4,1.7,26.4,2.6c-0.7-51.7-1.3-102.8-2-155.1c6.3,0,12.1-0.1,17.9,0
	c3.3,0.1,5.5-1.1,7.5-3.7c16.2-20.5,33-40.6,48.5-61.6c6-8.1,12.9-9.9,22.3-9.5c2.1,59.8,4.2,119.7,6.3,180.6
	c6.4-3.4,12.3-6.6,18.7-9.9c0,3.1,0,5.8,0,9.2c4.1,0.3,8.1,0.6,12.8,1c0-3.9,0-7.4,0-12.5c3.3,1.9,5.8,2.7,7.3,4.4
	c6.9,7.5,13.8,14.9,20.1,22.9c3.7,4.7,7.7,6.9,13.6,6c1.2-0.2,2.6,0.2,4,0.3c-0.3,4.2-0.6,8.2-0.9,13c-3,0-5.9-0.3-8.8,0.1
	c-1.3,0.2-3.5,1.6-3.6,2.7c-0.8,6.6-1.1,13.2-1.6,20.1c2.3,0.5,4.2,0.9,6.7,1.4c0,4.6,0,9.3,0,14.1c-0.2,14.2-0.3,28.3-0.5,42.5
	c-0.1,8.7,0.2,9,9,7.7c0-6.8,0.2-13.6-0.1-20.4c-0.1-2.8,0.4-4.5,3.5-4.7c3.3-0.1,3.8-2.3,3.9-5.1c0.1-5.6,0.6-11.2,0.9-17.3
	c4.1,0,7.7,0,11.9,0c-1.7-33.2-3.3-65.8-5-99.1c5.2,0,9.9,0,15.4,0c-1-25.5-2-50.4-3.1-75.8c11.1,0,22,0,33.7,0
	c-1-25.2-2-49.9-3.1-75.1c4.9-0.4,9.4-0.8,14.5-1.2c0.7,25.2,1.4,49.9,2.1,74.6c13.3,0,26.1,0,39.7,0c-0.6,57.5-1.2,115.2-1.8,173
	c4.8,0.7,9.1,1.3,14,1.9c-1.9,11.2-3.8,22.1-5.8,33.7c8.3-0.4,16.1-0.9,23.8-1.2c10.2-0.5,10.2-0.4,10.9,9.6
	c0.1,1.1,0.4,2.2,0.6,3.3c0,24.7,0,49.3,0,74c-499.7,0-999.3,0-1499,0c-0.3-11.7-0.7-23.3-1-35C0,713,0,701,0,689z M912.7,368.5
	c-25.2,0-49.8,0-74.5,0c0,1.9,0,3.4,0,5.1c25,0,49.7,0,74.5,0C912.7,371.8,912.7,370.3,912.7,368.5z M837.9,380.2
	c0.2,2.1,0.3,3.7,0.5,5.2c25.1,0,49.7,0,74.6,0c-0.1-1.9-0.2-3.4-0.2-5.2C887.7,380.2,863.2,380.2,837.9,380.2z M838,348.6
	c25.2,0,49.8,0,74.6,0c0-1.8,0-3.3,0-5.1c-24.9,0-49.5,0-74.4,0C838.1,345.2,838.1,346.6,838,348.6z M838.2,362c25,0,49.6,0,74.3,0
	c0-1.8,0-3.3,0-4.9c-24.9,0-49.5,0-74.3,0C838.2,358.7,838.2,360.1,838.2,362z M1434.4,479.6c0,7,0,13.7,0,20.7c4.3,0,8.3,0,12.3,0
	c0-7.1,0-13.8,0-20.7C1442.4,479.6,1438.5,479.6,1434.4,479.6z M149.4,515.3c4.4,0,8.4,0,12.3,0c0-7.1,0-13.8,0-20.6
	c-4.3,0-8.2,0-12.3,0C149.4,501.5,149.4,508.1,149.4,515.3z M151.2,480.2c4.4,0,8.4,0,12.5,0c0-7,0-13.6,0-20.6c-4.2,0-8.3,0-12.5,0
	C151.2,466.6,151.2,473.2,151.2,480.2z M1407.5,495.2c4.4,0,8.4,0,12.3,0c0-7.1,0-13.8,0-20.6c-4.3,0-8.2,0-12.3,0
	C1407.5,481.6,1407.5,488.1,1407.5,495.2z M197.9,485.4c0-7,0-13.7,0-20.6c-4.2,0-8.2,0-12.1,0c0,7.2,0,13.9,0,20.6
	C190.1,485.4,193.8,485.4,197.9,485.4z M149.4,530c0,7,0,13.7,0,20.5c4.3,0,8.3,0,12.3,0c0-7.1,0-13.8,0-20.5
	C157.4,530,153.5,530,149.4,530z M198,431.3c-4.5,0-8.4,0-12.2,0c0,7.1,0,13.8,0,20.4c4.3,0,8.2,0,12.2,0
	C198,444.7,198,438.1,198,431.3z M149.4,565c0,7.2,0,13.9,0,20.6c4.3,0,8.4,0,12.2,0c0-7.1,0-13.8,0-20.6
	C157.5,565,153.7,565,149.4,565z M151.4,426.2c0,7.2,0,13.9,0,20.6c4.3,0,8.2,0,12.3,0c0-7,0-13.7,0-20.6
	C159.5,426.2,155.6,426.2,151.4,426.2z M197.8,416.8c0-7.3,0-14,0-20.5c-4.3,0-8.2,0-12,0c0,7.1,0,13.8,0,20.5
	C190.1,416.8,193.8,416.8,197.8,416.8z M163.6,411.8c0-7.3,0-14,0-20.6c-4.3,0-8.2,0-12.2,0c0,7,0,13.7,0,20.6
	C155.6,411.8,159.5,411.8,163.6,411.8z M151.1,377.9c4.4,0,8.3,0,12.4,0c0-7,0-13.7,0-20.5c-4.3,0-8.3,0-12.4,0
	C151.1,364.4,151.1,371,151.1,377.9z M197.8,383c0-7.1,0-13.7,0-20.5c-4.1,0-8,0-12.1,0c0,7,0,13.6,0,20.5
	C189.9,383,193.6,383,197.8,383z M128.8,383c0-7.2,0-13.7,0-20.5c-4.2,0-8,0-12,0c0,7,0,13.7,0,20.5C121,383,124.7,383,128.8,383z
	 M1392.9,500.4c0-7.1,0-13.8,0-20.6c-4.2,0-8,0-12,0c0,7.1,0,13.7,0,20.6C1384.9,500.4,1388.6,500.4,1392.9,500.4z M129.1,464.6
	c-4.4,0-8.1,0-12,0c0,7,0,13.8,0,20.6c4.2,0,8,0,12,0C129.1,478.2,129.1,471.6,129.1,464.6z M114.9,590.7c4.5,0,8.4,0,12.2,0
	c0-7.1,0-13.8,0-20.5c-4.3,0-8.2,0-12.2,0C114.9,577.2,114.9,583.8,114.9,590.7z M115,499.9c0,7.2,0,13.8,0,20.8
	c3.3,0,6.3,0.3,9.2-0.1c1.2-0.2,3-1.9,3.1-3.1c0.3-5.7,0.1-11.5,0.1-17.5C123.1,499.9,119.2,499.9,115,499.9z M114.9,555.5
	c4.5,0,8.3,0,12.3,0c0-7.1,0-13.8,0-20.5c-4.3,0-8.2,0-12.3,0C114.9,542,114.9,548.6,114.9,555.5z M196.2,535c-4.3,0-8.2,0-12.3,0
	c0,7,0,13.7,0,20.6c4.3,0,8.2,0,12.3,0C196.2,548.6,196.2,542,196.2,535z M183.6,499.9c0,4.4,0,8.2,0,12.1c0,9.3,0.8,10.1,10.1,8.6
	c1-0.2,2.6-1.7,2.6-2.6c0.2-5.9,0.1-11.8,0.1-18C191.9,499.9,188.1,499.9,183.6,499.9z M129,431.2c-4.2,0-8,0-11.9,0
	c0,7.1,0,13.8,0,20.5c4.1,0,7.9,0,11.9,0C129,444.8,129,438.1,129,431.2z M196.1,570.1c-4.2,0-8.1,0-12.2,0c0,7,0,13.7,0,20.6
	c4.2,0,8.1,0,12.2,0C196.1,583.8,196.1,577.1,196.1,570.1z M129,416.8c0-7.1,0-13.8,0-20.5c-4.2,0-8.1,0-11.9,0c0,7,0,13.6,0,20.5
	C121,416.8,124.8,416.8,129,416.8z"/>
</svg>
