<?xml version="1.0" standalone="no"?>
<!DOCTYPE svg PUBLIC "-//W3C//DTD SVG 1.1//EN" "http://www.w3.org/Graphics/SVG/1.1/DTD/svg11.dtd" >
<svg xmlns="http://www.w3.org/2000/svg">
<metadata></metadata>
<defs>
<font id="apex_newbold" horiz-adv-x="1310" >
<font-face units-per-em="2048" ascent="1536" descent="-512" />
<missing-glyph horiz-adv-x="409" />
<glyph unicode="&#xfb01;" horiz-adv-x="1361" d="M1311 256v-264q-43 -8 -94 -8q-140 0 -228 72.5t-88 215.5v480h-387v-752h-328v752h-166v217l166 45v80q0 80 20 146.5t54.5 114.5t83.5 85t104 60.5t120 38t126.5 20.5t128.5 6q205 0 404 -47v-273q-106 25 -184.5 36t-188.5 11q-340 0 -340 -198v-70h713v-707 q0 -31 18.5 -46t65.5 -15z" />
<glyph unicode="&#xfb02;" horiz-adv-x="1382" d="M1331 256v-264q-43 -8 -94 -8q-140 0 -227.5 72.5t-87.5 215.5v1018q-18 2 -58 2q-350 0 -350 -198v-70h262v-272h-262v-752h-328v752h-166v217l166 45v80q0 93 27 167.5t76 125t110 86.5t136.5 55.5t147.5 28t151 8.5q214 0 413 -47v-1201q0 -31 18.5 -46t65.5 -15z" />
<glyph unicode="&#xfb03;" horiz-adv-x="2099" d="M2048 256v-264q-43 -8 -94 -8q-140 0 -228 72.5t-88 215.5v480h-387v-752h-327v752h-410v-752h-328v752h-166v217l166 45v80q0 93 27 167.5t76 125t110 86.5t136.5 55.5t147.5 28t151 8.5q187 0 405 -45q136 45 322 45q204 0 403 -47v-273q-106 25 -184.5 36t-188.5 11 q-340 0 -340 -198v-70h713v-707q0 -31 18.5 -46t65.5 -15zM924 1094q0 112 39 198q-62 4 -99 4q-350 0 -350 -198v-74h410v70z" />
<glyph unicode="&#xfb04;" horiz-adv-x="2119" d="M2068 256v-264q-43 -8 -94 -8q-140 0 -227.5 72.5t-87.5 215.5v1018q-18 2 -57 2q-351 0 -351 -198v-70h262v-272h-262v-752h-327v752h-410v-752h-328v752h-166v217l166 45v80q0 93 27 167.5t76 125t110 86.5t136.5 55.5t147.5 28t151 8.5q188 0 409 -45q142 45 328 45 q215 0 414 -47v-1201q0 -31 18 -46t65 -15zM924 1094q0 114 41 198q-62 4 -101 4q-350 0 -350 -198v-74h410v70z" />
<glyph horiz-adv-x="0" />
<glyph horiz-adv-x="682" />
<glyph unicode=" "  horiz-adv-x="409" />
<glyph unicode="&#x09;" horiz-adv-x="409" />
<glyph unicode="&#xa0;" horiz-adv-x="409" />
<glyph unicode="!" horiz-adv-x="491" d="M365 430h-238l-74 1106h385zM51 166q0 82 56 138t139 56q82 0 138 -56t56 -138q0 -83 -56 -139t-138 -56q-83 0 -139 56t-56 139z" />
<glyph unicode="&#x22;" horiz-adv-x="829" d="M330 1024h-215l-64 512h338zM719 1024h-215l-64 512h338z" />
<glyph unicode="#" horiz-adv-x="1433" d="M137 735l76 252h188l88 293h320l-88 -293h186l88 293h320l-88 -293h200l-75 -252h-201l-57 -190h202l-75 -252h-203l-88 -293h-320l88 293h-186l-88 -293h-320l89 293h-187l76 252h186l58 190h-189zM645 735l-57 -190h186l57 190h-186z" />
<glyph unicode="$" horiz-adv-x="1024" d="M397 -127h-239l86 250q-93 16 -144 41v295q82 -31 185.5 -51.5t191.5 -20.5q146 0 146 59q0 33 -30.5 46t-103.5 20q-123 13 -196.5 32t-121.5 56.5t-65.5 92t-17.5 141.5q0 346 440 346l78 227h240l-88 -252q103 -22 145 -41v-295q-80 32 -183 52t-194 20 q-120 0 -120 -57q0 -32 28.5 -42.5t104.5 -17.5q87 -9 144 -18.5t106 -26.5t76.5 -38.5t47 -57t26.5 -80.5t7 -109q0 -77 -25 -138.5t-79 -109t-147 -73t-220 -25.5z" />
<glyph unicode="%" horiz-adv-x="2209" d="M786 0h-270l907 1280h271zM2132 385q0 -212 -97 -313t-294 -101t-294 100t-97 312t97 313t294 101t294 -100t97 -312zM1642 383q0 -93 24 -125.5t75 -32.5t74.5 33.5t23.5 126.5t-23.5 125.5t-74.5 32.5t-75 -33.5t-24 -126.5zM860 897q0 -212 -97 -313t-294 -101 t-294 100t-97 312t97 313t294 101t294 -100t97 -312zM371 895q0 -93 23.5 -125.5t74.5 -32.5t74.5 33.5t23.5 126.5t-23.5 125.5t-74.5 32.5t-74.5 -33.5t-23.5 -126.5z" />
<glyph unicode="&#x26;" horiz-adv-x="1566" d="M68 416q0 167 58 272.5t181 179.5q-57 139 -57 277q0 58 13 114.5t45 112.5t79 98.5t120.5 68.5t164.5 26q113 0 193 -29t124 -83.5t63 -121t19 -153.5q0 -144 -77 -238.5t-240 -177.5q122 -155 268 -273q135 199 135 535h332q0 -426 -203 -709q120 -63 236 -92 l-121 -280q-161 60 -336 157q-193 -129 -436 -129q-269 0 -415 116t-146 329zM637 279q71 0 135 18q-190 150 -311 309q-62 -62 -62 -141q0 -94 66 -140t172 -46zM582 1149q0 -62 28 -141q76 35 114 72t38 94q0 44 -19 63.5t-67 19.5q-51 0 -72.5 -25.5t-21.5 -82.5z" />
<glyph unicode="'" horiz-adv-x="440" d="M330 1024h-215l-64 512h338z" />
<glyph unicode="(" horiz-adv-x="737" d="M102 614q0 173 23 339t60.5 295t77 225.5t81.5 164.5h318q-58 -92 -110 -231.5t-93 -355t-41 -437.5t41 -437.5t93 -355t110 -231.5h-318q-42 68 -81.5 164.5t-77 225.5t-60.5 295t-23 339z" />
<glyph unicode=")" horiz-adv-x="737" d="M635 614q0 -173 -23 -339t-60.5 -295t-77 -225.5t-81.5 -164.5h-317q93 149 168 424.5t75 599.5t-75 599.5t-168 424.5h317q42 -68 81.5 -164.5t77 -225.5t60.5 -295t23 -339z" />
<glyph unicode="*" horiz-adv-x="1228" d="M418 1536h393l-37 -289l264 125l121 -375l-280 -53l196 -213l-319 -231l-142 256l-141 -256l-319 231l196 213l-280 53l120 375l265 -125z" />
<glyph unicode="+" horiz-adv-x="1228" d="M455 186v357h-353v311h353v356h319v-356h352v-311h-352v-357h-319z" />
<glyph unicode="," horiz-adv-x="491" d="M231 -256h-223l64 563h348z" />
<glyph unicode="-" horiz-adv-x="655" d="M594 795v-283h-533v283h533z" />
<glyph unicode="." horiz-adv-x="491" d="M51 166q0 82 56 138t139 56q82 0 138 -56t56 -138q0 -83 -56 -139t-138 -56q-83 0 -139 56t-56 139z" />
<glyph unicode="/" horiz-adv-x="1040" d="M334 -410h-334l707 2048h333z" />
<glyph unicode="0" horiz-adv-x="1228" d="M614 -29q-142 0 -238 33t-161 111t-94 206t-29 320q0 154 19.5 265.5t58 189.5t102 125t146 67.5t196.5 20.5q190 0 301.5 -60.5t166.5 -207t55 -400.5q0 -255 -55 -401.5t-166.5 -207.5t-301.5 -61zM614 1012q-78 0 -119.5 -31t-61 -110.5t-19.5 -229.5 q0 -152 19.5 -232t61 -110.5t119.5 -30.5t119.5 30.5t61.5 110.5t20 232q0 149 -19.5 229t-61.5 111t-120 31z" />
<glyph unicode="1" horiz-adv-x="735" d="M424 1309h164v-1309h-328v983l-227 -8v227z" />
<glyph unicode="2" horiz-adv-x="1122" d="M672 864q0 75 -37 111.5t-133 36.5q-178 0 -344 -76v307q146 66 381 66q86 0 156 -12.5t118.5 -34t84.5 -53t57 -65t34 -76t17 -80t4 -81.5q0 -75 -26 -145.5t-65.5 -126.5t-107.5 -118t-129.5 -108t-153.5 -108l498 6v-307h-932v215q326 254 452 396t126 253z" />
<glyph unicode="3" horiz-adv-x="1089" d="M440 1010q-163 0 -344 -72v305q62 30 175.5 48t220.5 18q257 0 369 -107.5t112 -318.5q0 -224 -166 -328q91 -31 151 -117t60 -227q0 -116 -28.5 -204.5t-90.5 -155t-167 -101.5t-251 -35q-236 0 -389 68v303q167 -70 369 -70q125 0 174 50.5t49 144.5q0 182 -211 182 h-231v289h239q74 0 115 40.5t41 125.5q0 82 -45.5 122t-151.5 40z" />
<glyph unicode="4" horiz-adv-x="1286" d="M453 410l249 6l5 360zM1020 1307v-891h209v-310h-209v-362h-318v362h-647v203l703 998h262z" />
<glyph unicode="5" horiz-adv-x="1105" d="M457 -285q-222 0 -365 70v291q62 -26 162 -44t190 -18q129 0 198 47.5t69 167.5q0 63 -17 103.5t-53 60.5t-75.5 26.5t-100.5 6.5h-334v854h860v-307h-542v-248h118q76 0 137 -10t125.5 -41.5t107.5 -84t71 -144.5t28 -216q0 -128 -33 -222t-85 -149t-131 -88t-155.5 -44 t-174.5 -11z" />
<glyph unicode="6" horiz-adv-x="1259" d="M764 1264q-62 0 -111.5 -10.5t-85 -28t-61.5 -47t-42 -62t-26.5 -78.5t-15 -90.5t-6.5 -103.5q91 127 317 127q108 0 188 -31t126 -79t74 -117.5t37 -133.5t9 -141t-10 -140t-43 -132.5t-87.5 -116.5t-151 -78t-226.5 -31q-159 0 -266 41.5t-168.5 130.5t-87 211.5 t-25.5 300.5q0 122 7 220t25 194.5t48 169.5t78 136.5t113 103.5t154 63t200 23q120 0 224 -23t157 -51v-303q-146 76 -344 76zM848 469q0 110 -45.5 160.5t-138.5 50.5q-125 0 -178.5 -49t-53.5 -162q0 -112 49.5 -161.5t157.5 -49.5t158.5 50t50.5 161z" />
<glyph unicode="7" horiz-adv-x="1038" d="M504 -256h-371l565 1241l-667 -6v301h977v-201z" />
<glyph unicode="8" horiz-adv-x="1228" d="M614 924q82 0 128 50.5t46 133.5q0 84 -50 131t-124 47t-124 -47t-50 -131q0 -83 46 -133.5t128 -50.5zM614 252q124 0 180 58t56 141q0 101 -58.5 158t-177.5 57t-177 -57t-58 -158q0 -83 55.5 -141t179.5 -58zM614 -29q-258 0 -400 120t-142 355q0 135 66.5 232.5 t146.5 132.5q-67 38 -116.5 119.5t-49.5 197.5q0 437 495 437q496 0 496 -437q0 -116 -49.5 -197.5t-116.5 -119.5q80 -35 146.5 -132.5t66.5 -232.5q0 -235 -142 -355t-401 -120z" />
<glyph unicode="9" horiz-adv-x="1259" d="M496 16q63 0 112.5 10.5t85 28t61 47t41.5 62t26.5 78.5t15 90t6.5 104q-91 -127 -316 -127q-436 0 -436 502q0 77 10 140t43 132.5t87.5 116.5t151 78t226.5 31q160 0 266.5 -41.5t168.5 -130.5t87 -211t25 -301q0 -122 -6.5 -220t-24.5 -194.5t-48 -169.5t-77.5 -136.5 t-112 -103.5t-153.5 -63t-200 -23q-123 0 -237 23.5t-165 50.5v303q146 -76 363 -76zM414 811q0 -110 45.5 -160.5t138.5 -50.5q124 0 177.5 49t53.5 162q0 112 -50 161.5t-158 49.5t-157.5 -49.5t-49.5 -161.5z" />
<glyph unicode=":" horiz-adv-x="491" d="M51 768q0 82 56 138.5t139 56.5q82 0 138 -56.5t56 -138.5q0 -83 -56 -139t-138 -56q-83 0 -139 56t-56 139zM51 166q0 82 56 138t139 56q82 0 138 -56t56 -138q0 -83 -56 -139t-138 -56q-83 0 -139 56t-56 139z" />
<glyph unicode=";" horiz-adv-x="491" d="M51 768q0 82 56 138.5t139 56.5q82 0 138 -56.5t56 -138.5q0 -83 -56 -139t-138 -56q-83 0 -139 56t-56 139zM231 -256h-223l64 563h348z" />
<glyph unicode="&#x3c;" horiz-adv-x="1228" d="M1126 477v-327l-1024 423v250l1024 424v-327l-604 -222z" />
<glyph unicode="=" horiz-adv-x="1228" d="M1126 754h-1024v311h1024v-311zM1126 332h-1024v311h1024v-311z" />
<glyph unicode="&#x3e;" horiz-adv-x="1228" d="M102 150v327l605 221l-605 222v327l1024 -424v-250z" />
<glyph unicode="?" horiz-adv-x="983" d="M473 928q78 30 111.5 64.5t33.5 111.5q0 79 -55 117.5t-184 38.5q-75 0 -178 -18.5t-158 -47.5v307q49 26 149.5 45t221.5 19q130 0 227 -24.5t156 -64.5t95 -100.5t49 -124t13 -143.5q0 -65 -11.5 -117t-35.5 -89.5t-50 -65t-65.5 -50t-71.5 -36.5t-79 -33 q-29 -11 -43 -17q-65 -27 -89 -66t-24 -110v-94h-219q-43 108 -43 195q0 105 51.5 176t198.5 127zM188 166q0 82 56 138t139 56q82 0 138.5 -56t56.5 -138q0 -83 -56.5 -139t-138.5 -56q-83 0 -139 56t-56 139z" />
<glyph unicode="@" horiz-adv-x="2174" d="M1534 102h-197l-20 74q-39 -45 -134 -77.5t-163 -32.5q-211 0 -329 112.5t-118 333.5t118 333.5t329 112.5q68 0 163 -32.5t134 -77.5l20 74h217v-625q43 0 77.5 12.5t57 32.5t39 50t25 58.5t14 65.5t6.5 63.5t1 59.5q0 254 -161.5 371.5t-514.5 117.5 q-356 0 -526.5 -149.5t-170.5 -466.5t170.5 -466.5t526.5 -149.5q160 0 362 29t293 69v-205q-104 -38 -300.5 -65t-354.5 -27q-447 0 -680.5 208.5t-233.5 606.5t233.5 606.5t680.5 208.5q893 0 893 -688q0 -81 -14.5 -156t-48.5 -145.5t-85 -122t-130.5 -82.5t-178.5 -31z M1227 373v278q-72 43 -146 43q-94 0 -139 -40.5t-45 -141.5q0 -100 45 -141t139 -41q33 0 69.5 11t56.5 21z" />
<glyph unicode="A" d="M389 0h-348l426 1544h377l426 -1544h-348l-72 315h-389zM655 1157l-131 -582h262z" />
<glyph unicode="B" horiz-adv-x="1230" d="M94 0v1536h551q114 0 200.5 -21.5t142 -59t90.5 -93.5t49 -118.5t14 -141.5q0 -97 -45 -174t-121 -117q93 -31 152 -119t59 -223q0 -83 -15.5 -151t-53.5 -128.5t-98 -101.5t-152.5 -64.5t-213.5 -23.5h-559zM422 662v-383h227q189 0 189 192q0 191 -189 191h-227z M793 1092q0 165 -160 165h-211v-329h211q48 0 81.5 15t49.5 41t22.5 52t6.5 56z" />
<glyph unicode="C" horiz-adv-x="1150" d="M84 768q1 427 161 612t503 185q82 0 150 -10.5t97 -20t72 -27.5v-309q-77 31 -139 45t-148 14q-98 0 -163 -22t-112 -76.5t-68 -150t-21 -240.5t21 -240.5t68 -150t112 -76.5t163 -22q86 0 148 14t139 45v-309q-43 -18 -72 -27.5t-97 -20t-150 -10.5q-343 0 -503 185 t-161 612z" />
<glyph unicode="D" horiz-adv-x="1320" d="M592 0h-498v1536h498q152 0 267.5 -39t188 -105t118 -166t63.5 -210t18 -248t-18 -248t-63.5 -210t-118 -166t-188 -105t-267.5 -39zM422 1237v-938h176q172 0 240.5 116.5t68.5 352.5q0 116 -15 199t-49.5 145.5t-95.5 93.5t-149 31h-176z" />
<glyph unicode="E" horiz-adv-x="1146" d="M1014 940v-293h-592v-348h651v-299h-979v1536h979v-299h-651v-297h592z" />
<glyph unicode="F" horiz-adv-x="1097" d="M1001 920v-293h-579v-627h-328v1536h969v-299h-641v-317h579z" />
<glyph unicode="G" horiz-adv-x="1312" d="M733 -29q-339 0 -494 195.5t-155 601.5q0 407 156.5 602t502.5 195q291 0 453 -72v-319q-199 83 -391 83q-218 0 -303.5 -109t-85.5 -380q0 -192 39 -298t121 -148.5t229 -42.5q59 0 94 6v311h-217v293h545v-813q-73 -45 -204.5 -75t-289.5 -30z" />
<glyph unicode="H" d="M1217 0h-328v643h-467v-643h-328v1536h328v-594h467v594h328v-1536z" />
<glyph unicode="I" horiz-adv-x="561" d="M444 0h-327v1536h327v-1536z" />
<glyph unicode="J" horiz-adv-x="755" d="M16 8v314q82 -35 177 -35q67 0 107 35.5t40 103.5v1110h332v-1184q0 -192 -110 -286.5t-343 -94.5q-44 0 -103.5 9.5t-99.5 27.5z" />
<glyph unicode="K" horiz-adv-x="1320" d="M899 0l-369 604l-112 -143v-461h-324v1536h324v-655l456 655h396l-533 -672l570 -864h-408z" />
<glyph unicode="L" horiz-adv-x="1064" d="M422 1536v-1237h620v-299h-948v1536h328z" />
<glyph unicode="M" horiz-adv-x="1622" d="M1214 940l-237 -754h-332l-237 754l10 -940h-324v1536h412l305 -956l305 956h412v-1536h-324z" />
<glyph unicode="N" horiz-adv-x="1323" d="M1229 0h-324l-495 918l8 -918h-324v1536h324l495 -918l-8 918h324v-1536z" />
<glyph unicode="O" horiz-adv-x="1392" d="M696 -29q-142 0 -249 38.5t-175.5 106t-111 170t-59.5 219t-17 263.5t17 263.5t59.5 219t111 170t175.5 106t249 38.5t249 -38.5t175.5 -106t111.5 -170t60 -219t17 -263.5t-17 -263.5t-60 -219t-111.5 -170t-175.5 -106t-249 -38.5zM696 1268q-152 0 -216 -115.5 t-64 -384.5t64 -384.5t216 -115.5t216.5 115.5t64.5 384.5t-64.5 384.5t-216.5 115.5z" />
<glyph unicode="P" horiz-adv-x="1187" d="M422 532v-532h-328v1536h520q148 0 258 -41t172 -112.5t91.5 -158.5t29.5 -190q0 -83 -17.5 -155t-58.5 -136.5t-103.5 -110.5t-157 -73t-214.5 -27h-192zM422 1237v-410h194q58 0 99 20t60.5 53.5t27.5 65t8 66.5t-8 66.5t-27.5 65t-60.5 53.5t-99 20h-194z" />
<glyph unicode="Q" horiz-adv-x="1392" d="M1071 74v-2l363 -74v-330l-967 334q-110 38 -185.5 107t-118.5 169.5t-61 218t-18 271.5q0 104 8.5 192t28 171t51.5 148t80 119.5t110.5 90.5t147 56t186.5 20q142 0 249 -38.5t175.5 -106t111.5 -170t60 -219t17 -263.5q0 -250 -55 -425.5t-183 -268.5zM696 1268 q-152 0 -216 -115.5t-64 -384.5t64 -384.5t216 -115.5t216.5 115.5t64.5 384.5t-64.5 384.5t-216.5 115.5z" />
<glyph unicode="R" horiz-adv-x="1239" d="M422 575v-575h-328v1536h522q152 0 260 -33.5t170.5 -98t90.5 -150t28 -199.5q0 -151 -49.5 -254.5t-165.5 -159.5l273 -641h-383l-207 575h-211zM422 1237v-365h223q52 0 86.5 16t50.5 45t21.5 57t5.5 65t-5.5 65.5t-21.5 57t-50.5 44t-86.5 15.5h-223z" />
<glyph unicode="S" horiz-adv-x="1218" d="M629 934q79 -11 137 -22.5t115.5 -29t97.5 -40t75.5 -55.5t56 -75t32.5 -97.5t12 -125.5q0 -140 -42.5 -241t-123.5 -161t-188.5 -88t-247.5 -28q-135 0 -267.5 24t-211.5 71v335q77 -44 194.5 -81t251.5 -37q164 0 231.5 45.5t67.5 130.5q0 87 -44.5 124t-162.5 52 q-296 39 -417 141.5t-121 325.5q0 219 140.5 341t434.5 122q147 0 261 -22t173 -54v-318q-68 33 -183 57.5t-226 24.5q-128 0 -196 -39t-68 -112q0 -81 47.5 -115.5t171.5 -52.5z" />
<glyph unicode="T" horiz-adv-x="1130" d="M1100 1237h-371v-1237h-328v1237h-370v299h1069v-299z" />
<glyph unicode="U" d="M655 -29q-63 0 -123.5 9t-127.5 30t-122.5 60t-101 93.5t-71 137t-25.5 184.5v1051h328v-1034q0 -234 243 -234q244 0 244 234v1034h328v-1051q0 -121 -38 -215t-96 -149t-137 -90t-151.5 -47.5t-149.5 -12.5z" />
<glyph unicode="V" d="M922 1536h348l-426 -1544h-377l-426 1544h348l266 -1169z" />
<glyph unicode="W" horiz-adv-x="1822" d="M696 1536h430l170 -1071l125 1071h351l-238 -1544h-426l-197 1153l-196 -1153h-426l-238 1544h350l125 -1071z" />
<glyph unicode="X" horiz-adv-x="1388" d="M961 0l-269 551l-268 -551h-385l424 799l-397 737h376l250 -549l250 549h377l-397 -737l424 -799h-385z" />
<glyph unicode="Y" horiz-adv-x="1343" d="M1325 1536l-487 -940v-596h-332v596l-488 940h375l279 -641l278 641h375z" />
<glyph unicode="Z" horiz-adv-x="1288" d="M1227 0h-1166v217l687 1004l-625 -7v322h1073v-217l-686 -1004l717 7v-322z" />
<glyph unicode="[" horiz-adv-x="634" d="M426 1339v-1450h131v-299h-440v2048h440v-299h-131z" />
<glyph unicode="\" horiz-adv-x="1040" d="M1040 -410h-333l-707 2048h334z" />
<glyph unicode="]" horiz-adv-x="634" d="M209 -111v1450h-131v299h440v-2048h-440v299h131z" />
<glyph unicode="^" horiz-adv-x="1024" d="M373 768h-328l322 768h290l322 -768h-328l-139 420z" />
<glyph unicode="_" horiz-adv-x="634" d="M635 -195v-256h-635v256h635z" />
<glyph unicode="`" horiz-adv-x="1024" d="M645 1126h-246l-215 410h328z" />
<glyph unicode="a" horiz-adv-x="1019" d="M621 651v66q0 36 -28 53.5t-93 17.5q-91 0 -193.5 -22.5t-175.5 -54.5v274q59 26 163.5 47t205.5 21q108 0 187 -19t127 -51t76 -82.5t38 -105.5t10 -129v-666h-197l-45 78q-120 -107 -301 -107q-93 0 -163 28.5t-109 77t-57.5 104t-18.5 116.5q0 67 15 119.5t45 87 t63.5 58t82 38t88 21.5t93.5 12zM621 473l-138 -18q-68 -9 -98.5 -43t-30.5 -95q0 -56 33 -88t86 -32q99 0 148 49v227z" />
<glyph unicode="b" horiz-adv-x="1124" d="M289 0h-197v1536h328v-549q109 66 256 66q202 0 299.5 -130.5t97.5 -410.5t-97.5 -410.5t-299.5 -130.5q-201 0 -332 111zM420 743v-462q63 -43 145 -43q108 0 146.5 66t38.5 208q0 141 -38.5 207.5t-146.5 66.5q-36 0 -72.5 -11t-54.5 -21z" />
<glyph unicode="c" horiz-adv-x="901" d="M375 512q0 -139 59 -198.5t168 -59.5q117 0 227 47v-278q-107 -52 -260 -52q-276 0 -397 135.5t-121 405.5t121 405.5t397 135.5q153 0 260 -52v-278q-110 47 -227 47q-109 0 -168 -59.5t-59 -198.5z" />
<glyph unicode="d" horiz-adv-x="1124" d="M1032 0h-196l-56 82q-131 -111 -331 -111q-202 0 -300 130.5t-98 410.5t98 410.5t300 130.5q147 0 256 -66v549h327v-1536zM705 281v462q-64 43 -146 43q-56 0 -92.5 -17.5t-56.5 -55t-27.5 -84.5t-7.5 -117q0 -143 38 -208.5t146 -65.5q36 0 72.5 11t54.5 21z" />
<glyph unicode="e" horiz-adv-x="1042" d="M973 403h-598q-6 -97 45.5 -134.5t175.5 -37.5q206 0 342 68v-256q-175 -72 -385 -72q-254 0 -378 132.5t-124 408.5q0 275 119.5 408t359.5 133q106 0 186.5 -26t129 -71t80.5 -107t41.5 -134.5t12.5 -151.5t-7 -160zM535 807q-160 0 -160 -203h291q32 203 -131 203z " />
<glyph unicode="f" horiz-adv-x="798" d="M809 1530v-275q-82 37 -160 37q-60 0 -97.5 -30t-37.5 -97v-141h264v-272h-264v-752h-328v752h-166v217l166 45v190q0 183 104.5 272t325.5 89q41 0 98.5 -9t94.5 -26z" />
<glyph unicode="g" horiz-adv-x="1105" d="M51 659q0 196 113 295t348 99q154 0 240 -29h333v-219l-122 -33q10 -58 10 -113q0 -196 -113 -294.5t-348 -98.5q-71 0 -104 4q-15 -20 -15 -39q0 -30 41 -36l395 -52q154 -21 215.5 -95t61.5 -206q0 -80 -36 -145.5t-96 -109t-142 -73t-171 -42.5t-186 -13 q-100 0 -185 16t-153.5 48.5t-107.5 87.5t-39 127q0 97 63.5 163t149.5 85q-46 24 -70 68t-24 98q0 43 29.5 92t78.5 84q-166 97 -166 331zM725 -115l-354 45q-33 -12 -55.5 -41.5t-22.5 -62.5q0 -59 50.5 -90t166.5 -31t194 35t78 86t-57 59zM362 659q0 -151 150 -151 t150 151q0 152 -150 152t-150 -152z" />
<glyph unicode="h" horiz-adv-x="1126" d="M92 1536h328v-549q128 66 266 66q102 0 173.5 -25.5t111 -73.5t56.5 -107.5t17 -137.5v-709h-327v659q0 61 -26 94t-89 33q-100 0 -182 -53v-733h-328v1536z" />
<glyph unicode="i" horiz-adv-x="563" d="M512 256v-264q-43 -8 -94 -8q-140 0 -228 72.5t-88 215.5v752h326v-707q0 -31 18.5 -46t65.5 -15zM72 1321q0 82 55.5 138.5t138.5 56.5q82 0 138.5 -56.5t56.5 -138.5q0 -83 -56.5 -139t-138.5 -56q-83 0 -138.5 56t-55.5 139z" />
<glyph unicode="j" horiz-adv-x="552" d="M-88 -541v275q120 0 165.5 45.5t45.5 126.5v1118h326v-1151q0 -86 -30.5 -156t-82 -117.5t-121.5 -79.5t-146 -46.5t-157 -14.5zM92 1321q0 82 56 138.5t139 56.5q82 0 138 -56.5t56 -138.5q0 -83 -56 -139t-138 -56q-83 0 -139 56t-56 139z" />
<glyph unicode="k" horiz-adv-x="1110" d="M410 1536v-840l262 328h409l-397 -418l428 -606h-399l-238 387l-65 -70v-317h-318v1536h318z" />
<glyph unicode="l" horiz-adv-x="563" d="M512 256v-264q-43 -8 -94 -8q-140 0 -228 72.5t-88 215.5v1264h326v-1219q0 -31 18.5 -46t65.5 -15z" />
<glyph unicode="m" horiz-adv-x="1644" d="M1563 0h-328v705q0 81 -92 81q-47 0 -88.5 -17t-63.5 -36v-733h-327v705q0 81 -93 81q-47 0 -88 -17t-63 -36v-733h-328v1024h197l41 -74q54 46 146.5 74.5t174.5 28.5q179 0 238 -84q54 40 145 62t187 22q342 0 342 -344v-709z" />
<glyph unicode="n" horiz-adv-x="1126" d="M92 1024h197l41 -74q169 103 356 103q102 0 173.5 -25.5t111 -73.5t56.5 -107.5t17 -137.5v-709h-327v659q0 61 -26 94t-89 33q-100 0 -182 -53v-733h-328v1024z" />
<glyph unicode="o" horiz-adv-x="1064" d="M532 -29q-138 0 -234 38.5t-149 113.5t-75.5 169t-22.5 220t22.5 220t75.5 169t149 113.5t234 38.5q111 0 195.5 -26t138.5 -72t87.5 -115.5t47 -148.5t13.5 -179t-13.5 -179t-47 -148.5t-87.5 -115.5t-138.5 -72t-195.5 -26zM532 791q-85 0 -119 -62.5t-34 -216.5 t34 -216.5t119 -62.5t119.5 62.5t34.5 216.5t-34.5 216.5t-119.5 62.5z" />
<glyph unicode="p" horiz-adv-x="1124" d="M92 1024h197l55 -82q131 111 332 111q202 0 299.5 -130.5t97.5 -410.5t-97.5 -410.5t-299.5 -130.5q-147 0 -256 66v-549h-328v1536zM420 741v-462q63 -43 145 -43q56 0 93 18t57 55.5t27.5 85t7.5 117.5q0 142 -38.5 207t-146.5 65q-36 0 -72.5 -11t-54.5 -21z" />
<glyph unicode="q" horiz-adv-x="1124" d="M836 1024h196v-1536h-327v549q-109 -66 -256 -66q-202 0 -300 130.5t-98 410.5t98 410.5t300 130.5q200 0 331 -111zM705 281v462q-64 43 -146 43q-108 0 -146 -65.5t-38 -208.5q0 -70 7.5 -117t27.5 -84.5t56.5 -55t92.5 -17.5q36 0 72.5 11t54.5 21z" />
<glyph unicode="r" horiz-adv-x="757" d="M737 1038v-264q-32 8 -100 8q-69 0 -131.5 -19t-85.5 -40v-723h-328v1024h197l41 -74q44 42 126.5 72.5t188.5 30.5q57 0 92 -15z" />
<glyph unicode="s" horiz-adv-x="962" d="M858 999v-274q-159 66 -330 66q-143 0 -143 -72q0 -38 23.5 -52.5t78.5 -19.5q163 -15 252.5 -52t125.5 -101.5t36 -174.5q0 -77 -24.5 -138t-77 -109.5t-144 -74.5t-217.5 -26q-210 0 -372 66v274q183 -78 364 -78q79 0 115.5 17t36.5 55t-24 52.5t-79 19.5 q-163 15 -252 52t-125 101.5t-36 174.5q0 163 111 255.5t339 92.5q215 0 342 -54z" />
<glyph unicode="t" horiz-adv-x="798" d="M739 248v-256q-79 -21 -168 -21q-211 0 -303 88.5t-92 274.5v418h-166v217l166 45v211l328 88v-289h254v-272h-254v-392q0 -63 30 -93.5t105 -30.5q52 0 100 12z" />
<glyph unicode="u" horiz-adv-x="1126" d="M1034 0h-196l-41 74q-169 -103 -357 -103q-102 0 -173.5 25.5t-111 73.5t-56.5 107.5t-17 137.5v709h328v-659q0 -61 26 -94t88 -33q101 0 183 53v733h327v-1024z" />
<glyph unicode="v" horiz-adv-x="1064" d="M674 -16h-283l-381 1040h342l180 -635l181 635h342z" />
<glyph unicode="w" horiz-adv-x="1413" d="M842 1024l137 -598l84 598h319l-245 -1040h-293l-137 647l-138 -647h-293l-245 1040h319l84 -598l137 598h271z" />
<glyph unicode="x" horiz-adv-x="1085" d="M702 0l-159 313l-160 -313h-363l306 526l-283 498h356l144 -293l143 293h356l-282 -498l305 -526h-363z" />
<glyph unicode="y" horiz-adv-x="1064" d="M10 1024h355l167 -602l168 602h355l-586 -1536h-358l266 580z" />
<glyph unicode="z" horiz-adv-x="983" d="M932 0h-881v238l447 503l-402 -4v287h811v-238l-446 -503l471 4v-287z" />
<glyph unicode="{" horiz-adv-x="675" d="M416 614q43 -21 64 -63.5t18 -91.5l-35 -490q-3 -39 18.5 -59.5t67.5 -20.5h49v-299h-192q-116 0 -187.5 56t-64.5 168l34 571q6 80 -75 80h-52v299h52q81 0 75 80l-34 571q-7 112 64.5 167.5t187.5 55.5h192v-299h-49q-47 0 -68 -20t-18 -59l35 -490q3 -49 -18 -92 t-64 -64z" />
<glyph unicode="|" horiz-adv-x="559" d="M442 -410h-325v2048h325v-2048z" />
<glyph unicode="}" horiz-adv-x="675" d="M260 614q-43 21 -64 64t-18 92l35 490q3 39 -18 59t-68 20h-49v299h192q116 0 187.5 -55.5t64.5 -167.5l-35 -571q-6 -80 76 -80h51v-299h-51q-82 0 -76 -80l35 -571q7 -112 -64.5 -168t-187.5 -56h-192v299h49q46 0 67.5 20.5t18.5 59.5l-35 490q-3 49 18 91.5t64 63.5z " />
<glyph unicode="~" horiz-adv-x="1024" d="M932 793v-289q-23 -25 -73.5 -41.5t-113.5 -16.5q-65 0 -132 20.5t-114.5 45.5t-110 45.5t-118.5 20.5t-107 -20.5t-71 -43.5v289q23 24 73.5 40.5t113.5 16.5q65 0 132 -20.5t114.5 -45t110 -45t118.5 -20.5t107 20.5t71 43.5z" />
<glyph unicode="&#xa1;" horiz-adv-x="491" d="M127 594h238l73 -1106h-385zM51 858q0 83 56 139t139 56q82 0 138 -56t56 -139q0 -82 -56 -138t-138 -56q-83 0 -139 56t-56 138z" />
<glyph unicode="&#xa2;" horiz-adv-x="1007" d="M489 -127h-239l92 270q-260 109 -260 498q0 529 485 541l78 225h240l-86 -246q53 -11 125 -37v-290q-131 53 -267 53q-251 0 -251 -246t251 -246q133 0 267 54v-291q-138 -58 -336 -58h-21z" />
<glyph unicode="&#xa3;" horiz-adv-x="1196" d="M526 516v-225h596v-291h-1065v291h146v225h-146v246h146v125q0 73 13 132t47 115t90 93t146.5 59.5t211.5 22.5q224 0 370 -66v-287q-173 56 -333 56q-104 0 -163 -42t-59 -126v-82h467v-246h-467z" />
<glyph unicode="&#xa4;" horiz-adv-x="1638" d="M1425 768q0 -181 -69 -313l213 -213l-238 -238l-219 219q-139 -65 -293 -65t-293 65l-219 -219l-237 238l213 213q-70 137 -70 313t70 313l-213 213l237 238l219 -219q139 65 293 65t293 -65l219 219l238 -238l-213 -213q69 -132 69 -313zM1049 768q0 147 -57 211.5 t-173 64.5t-172.5 -64.5t-56.5 -211.5t56.5 -211.5t172.5 -64.5t173 64.5t57 211.5z" />
<glyph unicode="&#xa5;" horiz-adv-x="1306" d="M57 408v204h355l-33 58h-322v204h205l-229 406h381l239 -520l240 520h381l-232 -406h207v-204h-321l-33 -58h354v-204h-434l2 -408h-328l3 408h-435z" />
<glyph unicode="&#xa6;" horiz-adv-x="583" d="M442 -410h-325v973h325v-973zM442 666h-325v972h325v-972z" />
<glyph unicode="&#xa7;" horiz-adv-x="1433" d="M612 78q-155 21 -253.5 54.5t-155 88.5t-78 125.5t-21.5 175.5q0 99 50 196t149 161q-53 86 -53 221q0 65 13 125.5t51 125.5t98.5 112.5t163.5 78.5t237 31q276 0 459 -80l-6 -342q-127 59 -236 78.5t-225 19.5q-119 0 -163 -43t-44 -114q0 -63 52.5 -97t170.5 -49 q155 -21 253.5 -54.5t155 -88.5t78 -125.5t21.5 -175.5q0 -101 -50.5 -197t-150.5 -160q56 -91 56 -221q0 -65 -13 -125.5t-51 -125.5t-98.5 -112.5t-163.5 -78.5t-237 -31q-276 0 -459 80l6 342q127 -59 236 -78.5t225 -19.5q119 0 163 43t44 114q0 63 -53 97t-171 49z M774 647q-120 18 -203 41q-59 -26 -87.5 -72.5t-28.5 -97.5q0 -59 51 -92t153 -49q95 -15 201 -41q60 26 89.5 72.5t29.5 97.5q0 59 -51 92t-154 49z" />
<glyph unicode="&#xa8;" horiz-adv-x="1024" d="M72 1321q0 82 55.5 138.5t138.5 56.5q82 0 138.5 -56.5t56.5 -138.5q0 -83 -56.5 -139t-138.5 -56q-83 0 -138.5 56t-55.5 139zM563 1321q0 82 56 138.5t139 56.5q82 0 138 -56.5t56 -138.5q0 -83 -56 -139t-138 -56q-83 0 -139 56t-56 139z" />
<glyph unicode="&#xa9;" horiz-adv-x="1392" d="M696 -29q-115 0 -215 22.5t-188 73t-150.5 126.5t-98.5 190t-36 256q0 143 36 257t98.5 190.5t150.5 127t188 73t215 22.5q116 0 217 -22.5t189.5 -73t151.5 -127t99 -190.5t36 -257q0 -142 -36 -256t-99 -190t-151.5 -126.5t-189.5 -73t-217 -22.5zM700 129 q88 0 164.5 17t143.5 56t114.5 97t75 145t27.5 195q0 135 -41.5 236.5t-115 160t-165.5 87t-203 28.5q-89 0 -166 -17t-144.5 -56t-115 -97.5t-75 -145.5t-27.5 -196t27.5 -195.5t75 -144.5t115 -97t144.5 -56t166 -17zM330 641q0 406 381 406q149 0 252 -43v-220 q-98 41 -201 41q-189 0 -189 -184t189 -184q96 0 201 39v-217q-103 -43 -252 -43q-381 0 -381 405z" />
<glyph unicode="&#xaa;" horiz-adv-x="815" d="M471 1249v27q0 33 -21 49t-81 16q-138 0 -275 -55l-8 225q60 23 152.5 38.5t181.5 15.5q98 0 163.5 -20t99.5 -61t47 -89.5t13 -118.5v-506h-211l-22 45q-97 -72 -217 -72q-256 0 -256 250q0 124 72 178.5t223 67.5zM471 1110l-92 -8q-98 -9 -98 -84q0 -86 86 -86 q24 0 55.5 8.5t48.5 20.5v149z" />
<glyph unicode="&#xab;" horiz-adv-x="1013" d="M113 418v188l389 307v-280l-121 -121l121 -121v-282zM502 418v188l389 307v-280l-121 -121l121 -121v-282z" />
<glyph unicode="&#xac;" horiz-adv-x="1228" d="M1126 1014v-703h-319v391h-705v312h1024z" />
<glyph unicode="&#xad;" horiz-adv-x="655" d="M594 795v-283h-533v283h533z" />
<glyph unicode="&#xae;" horiz-adv-x="1392" d="M696 -29q-115 0 -215 22.5t-188 73t-150.5 126.5t-98.5 190t-36 256q0 143 36 257t98.5 190.5t150.5 127t188 73t215 22.5q116 0 217 -22.5t189.5 -73t151.5 -127t99 -190.5t36 -257q0 -142 -36 -256t-99 -190t-151.5 -126.5t-189.5 -73t-217 -22.5zM700 129 q88 0 164.5 17t143.5 56t114.5 97t75 145t27.5 195q0 135 -41.5 236.5t-115 160t-165.5 87t-203 28.5q-89 0 -166 -17t-144.5 -56t-115 -97.5t-75 -145.5t-27.5 -196t27.5 -195.5t75 -144.5t115 -97t144.5 -56t166 -17zM709 494h-88v-238h-244v768h405q149 0 216 -73 t67 -195q0 -69 -29 -133.5t-88 -94.5l133 -272h-286zM803 758q0 49 -41 51h-141v-100h141q41 2 41 49z" />
<glyph unicode="&#xaf;" horiz-adv-x="1024" d="M831 1444v-246h-638v246h638z" />
<glyph unicode="&#xb0;" horiz-adv-x="868" d="M776 1245q0 -319 -342 -319t-342 319q0 320 342 320t342 -320zM352 1245q0 -71 82 -71t82 71q0 72 -82 72t-82 -72z" />
<glyph unicode="&#xb1;" horiz-adv-x="1228" d="M1126 0h-1024v311h1024v-311zM455 422v280h-353v312h353v303h319v-303h352v-312h-352v-280h-319z" />
<glyph unicode="&#xb2;" horiz-adv-x="897" d="M385 1296q-63 0 -132.5 -15t-108.5 -29l-38 -15v276q38 19 132 35.5t184 16.5q110 0 188.5 -23t119 -63t58 -85t17.5 -98q0 -66 -32 -124t-84 -99.5t-99 -68.5t-96 -46l321 7v-267h-733v199q117 69 196.5 125.5t117.5 96t52.5 66t14.5 48.5q0 63 -78 63z" />
<glyph unicode="&#xb3;" horiz-adv-x="960" d="M412 942q65 0 101.5 6t46 13.5t9.5 19.5q0 16 -13.5 26.5t-35.5 10.5h-293v201h275q51 0 51 34q0 41 -141 41q-62 0 -135 -11t-115 -23l-43 -11v262q39 19 137.5 36.5t194.5 17.5q188 0 297.5 -59t109.5 -179q0 -66 -29.5 -111t-74.5 -59q135 -52 135 -211 q0 -133 -112 -204.5t-326 -71.5q-97 0 -204 18t-145 37v262q142 -45 310 -45z" />
<glyph unicode="&#xb4;" horiz-adv-x="1024" d="M625 1126h-246l133 410h328z" />
<glyph unicode="&#xb5;" horiz-adv-x="1126" d="M1034 0h-196l-41 74q-169 -103 -357 -103l-30 2v-485h-328v1536h328v-659q0 -61 26 -94t88 -33q101 0 183 53v733h327v-1024z" />
<glyph unicode="&#xb6;" horiz-adv-x="1257" d="M713 0h-351v561q-161 54 -236 179.5t-75 291.5q0 82 18 154t59 137t103.5 111.5t158 74t214.5 27.5h520v-1536h-350v526h-61v-526z" />
<glyph unicode="&#xb7;" horiz-adv-x="491" d="M51 653q0 82 56 138.5t139 56.5q82 0 138 -56.5t56 -138.5q0 -83 -56 -138.5t-138 -55.5q-83 0 -139 55.5t-56 138.5z" />
<glyph unicode="&#xb8;" horiz-adv-x="1024" d="M776 -297q0 -110 -73 -162.5t-189 -52.5q-61 0 -118.5 12t-86.5 27v186q93 -30 178 -30q78 0 78 47q0 26 -29.5 45.5t-115.5 31.5l20 193h144l8 -117q94 -22 139 -65.5t45 -114.5z" />
<glyph unicode="&#xb9;" horiz-adv-x="731" d="M436 1565h131v-867h-291v574l-225 -8v192z" />
<glyph unicode="&#xba;" horiz-adv-x="849" d="M41 1153q0 215 88 313.5t295 98.5t296 -98t89 -312q0 -215 -89 -313.5t-296 -98.5t-295 97.5t-88 312.5zM309 1153q0 -102 26 -142t89 -40t91 41.5t28 142.5t-28 141.5t-91 40.5q-62 0 -88.5 -40.5t-26.5 -143.5z" />
<glyph unicode="&#xbb;" horiz-adv-x="1013" d="M901 606v-188l-389 -309v282l119 121l-119 121v280zM512 606v-188l-389 -309v282l119 121l-119 121v280z" />
<glyph unicode="&#xbc;" horiz-adv-x="2140" d="M451 1565h131v-867h-291v574l-225 -8v192zM586 0h-271l1090 1536h270zM1157 131v197l416 538h346v-475h129v-260h-129v-131h-287v131h-475zM1511 387l121 4l10 170z" />
<glyph unicode="&#xbd;" horiz-adv-x="2166" d="M451 1565h131v-867h-291v574l-225 -8v192zM586 0h-271l1090 1536h270zM1645 592q-63 0 -132.5 -15t-108.5 -30l-38 -15v283q38 19 131.5 35t183.5 16q89 0 157.5 -15.5t110.5 -41t68.5 -61t36.5 -72t10 -78.5q0 -66 -32 -124t-84 -99.5t-99 -68.5t-96 -46l322 6v-266 h-734v199q222 131 301.5 207t79.5 124q0 62 -77 62z" />
<glyph unicode="&#xbe;" horiz-adv-x="2324" d="M424 948q65 0 102 6t46.5 13.5t9.5 19.5q0 31 -50 31h-292v201h274q51 0 51 28q0 41 -141 41q-62 0 -135 -11t-115 -23l-43 -11v268q39 19 137.5 36.5t194.5 17.5q188 0 297.5 -59t109.5 -179q0 -66 -29.5 -111t-74.5 -59q135 -52 135 -211q0 -133 -112 -204.5 t-326 -71.5q-97 0 -203.5 18t-144.5 37v268q141 -45 309 -45zM770 0h-270l1089 1536h271zM1341 131v197l416 538h346v-475h129v-260h-129v-131h-286v131h-476zM1696 387l121 4l10 170z" />
<glyph unicode="&#xbf;" horiz-adv-x="983" d="M510 96q-78 -30 -111.5 -64.5t-33.5 -111.5q0 -79 55 -117.5t184 -38.5q75 0 178 18.5t158 47.5v-307q-49 -26 -149.5 -45t-221.5 -19q-130 0 -227 24.5t-156 64.5t-95 100.5t-49 124t-13 143.5q0 65 11.5 117t35.5 89.5t50 65t65.5 50t71.5 36.5t79 33q29 11 43 17 q65 27 89 66t24 110v94h219q43 -108 43 -195q0 -105 -51.5 -176t-198.5 -127zM795 858q0 -82 -56 -138t-139 -56q-82 0 -138 56t-56 138q0 83 56 139t138 56q83 0 139 -56t56 -139z" />
<glyph unicode="&#xc0;" d="M389 0h-348l426 1544h377l426 -1544h-348l-72 315h-389zM655 1157l-131 -582h262zM768 1618h-246l-205 246h349z" />
<glyph unicode="&#xc1;" d="M389 0h-348l426 1544h377l426 -1544h-348l-72 315h-389zM655 1157l-131 -582h262zM788 1618h-245l102 246h348z" />
<glyph unicode="&#xc2;" d="M389 0h-348l426 1544h377l426 -1544h-348l-72 315h-389zM522 1618h-272l252 246h307l252 -246h-273l-133 92zM655 1157l-131 -582h262z" />
<glyph unicode="&#xc3;" d="M389 0h-348l426 1544h377l426 -1544h-348l-72 315h-389zM393 1618h-178q0 297 266 297q59 0 113.5 -19.5t87.5 -43t72.5 -43t72.5 -19.5q45 0 68 20.5t23 53.5h178q0 -297 -267 -297q-59 0 -113.5 19.5t-87.5 43t-72.5 43t-72.5 19.5q-45 0 -67.5 -20.5t-22.5 -53.5z M655 1157l-131 -582h262z" />
<glyph unicode="&#xc4;" d="M389 0h-348l426 1544h377l426 -1544h-348l-72 315h-389zM707 1761q0 82 55.5 138.5t138.5 56.5q82 0 138.5 -56.5t56.5 -138.5q0 -83 -56.5 -138.5t-138.5 -55.5q-83 0 -138.5 55.5t-55.5 138.5zM215 1761q0 82 56 138.5t139 56.5q82 0 138 -56.5t56 -138.5 q0 -83 -56 -138.5t-138 -55.5q-83 0 -139 55.5t-56 138.5zM655 1157l-131 -582h262z" />
<glyph unicode="&#xc5;" d="M389 0h-348l426 1544h377l426 -1544h-348l-72 315h-389zM872 1761q0 -105 -56.5 -149.5t-160.5 -44.5t-160.5 44.5t-56.5 149.5t56.5 150t160.5 45t160.5 -45t56.5 -150zM655 1157l-131 -582h262zM610 1761q0 -22 45 -22t45 22q0 23 -45 23t-45 -23z" />
<glyph unicode="&#xc6;" horiz-adv-x="2021" d="M1890 946v-307h-585l47 -332h598v-307h-926l-37 311h-457l-129 -311h-381l723 1536h1207v-307h-727l39 -283h628zM889 1169l-238 -571h303z" />
<glyph unicode="&#xc7;" horiz-adv-x="1146" d="M940 -297q0 -110 -73 -162.5t-189 -52.5q-61 0 -118.5 12t-86.5 27v186q93 -30 178 -30q78 0 78 47q0 26 -29.5 45.5t-115.5 31.5l18 175q-266 34 -391.5 220t-126.5 566q1 427 161 612t503 185q82 0 150 -10.5t97 -20t72 -27.5v-309q-77 31 -139 45t-148 14 q-98 0 -163 -22t-112 -76.5t-68 -150t-21 -240.5t21 -240.5t68 -150t112 -76.5t163 -22q86 0 148 14t139 45v-309q-43 -18 -72 -27.5t-96.5 -20t-148.5 -10.5l6 -88q94 -22 139 -65.5t45 -114.5z" />
<glyph unicode="&#xc8;" horiz-adv-x="1146" d="M739 1618h-245l-205 246h348zM1014 940v-293h-592v-348h651v-299h-979v1536h979v-299h-651v-297h592z" />
<glyph unicode="&#xc9;" horiz-adv-x="1146" d="M717 1618h-246l102 246h349zM1014 940v-293h-592v-348h651v-299h-979v1536h979v-299h-651v-297h592z" />
<glyph unicode="&#xca;" horiz-adv-x="1146" d="M471 1618h-272l252 246h307l252 -246h-273l-133 92zM1014 940v-293h-592v-348h651v-299h-979v1536h979v-299h-651v-297h592z" />
<glyph unicode="&#xcb;" horiz-adv-x="1146" d="M164 1761q0 82 55.5 138.5t138.5 56.5q82 0 138.5 -56.5t56.5 -138.5q0 -83 -56.5 -138.5t-138.5 -55.5q-83 0 -138.5 55.5t-55.5 138.5zM655 1761q0 82 56 138.5t139 56.5q82 0 138 -56.5t56 -138.5q0 -83 -56 -138.5t-138 -55.5q-83 0 -139 55.5t-56 138.5zM1014 940 v-293h-592v-348h651v-299h-979v1536h979v-299h-651v-297h592z" />
<glyph unicode="&#xcc;" horiz-adv-x="561" d="M410 1618h-246l-205 246h348zM444 0h-327v1536h327v-1536z" />
<glyph unicode="&#xcd;" horiz-adv-x="561" d="M399 1618h-245l102 246h348zM444 0h-327v1536h327v-1536z" />
<glyph unicode="&#xce;" horiz-adv-x="561" d="M147 1618h-272l252 246h307l252 -246h-272l-133 92zM444 0h-327v1536h327v-1536z" />
<glyph unicode="&#xcf;" horiz-adv-x="561" d="M-139 1761q0 82 55.5 138.5t138.5 56.5q82 0 138.5 -56.5t56.5 -138.5q0 -83 -56.5 -138.5t-138.5 -55.5q-83 0 -138.5 55.5t-55.5 138.5zM311 1761q0 82 56 138.5t139 56.5q82 0 138 -56.5t56 -138.5q0 -83 -56 -138.5t-138 -55.5q-83 0 -139 55.5t-56 138.5zM444 0 h-327v1536h327v-1536z" />
<glyph unicode="&#xd0;" horiz-adv-x="1449" d="M721 0h-498v649h-172v246h172v641h498q152 0 267.5 -39t188 -105t118 -166t63.5 -210t18 -248t-18 -248t-63.5 -210t-118 -166t-188 -105t-267.5 -39zM551 1237v-342h266v-246h-266v-350h176q172 0 240.5 116.5t68.5 352.5q0 116 -15 199t-49.5 145.5t-95.5 93.5t-149 31 h-176z" />
<glyph unicode="&#xd1;" horiz-adv-x="1323" d="M399 1618h-178q0 297 266 297q59 0 113.5 -19.5t88 -43t73 -43t72.5 -19.5q45 0 67.5 20.5t22.5 53.5h178q0 -297 -266 -297q-59 0 -113.5 19.5t-88 43t-73 43t-72.5 19.5q-45 0 -67.5 -20.5t-22.5 -53.5zM1229 0h-324l-495 918l8 -918h-324v1536h324l495 -918l-8 918 h324v-1536z" />
<glyph unicode="&#xd2;" horiz-adv-x="1392" d="M831 1618h-245l-205 246h348zM696 -29q-142 0 -249 38.5t-175.5 106t-111 170t-59.5 219t-17 263.5t17 263.5t59.5 219t111 170t175.5 106t249 38.5t249 -38.5t175.5 -106t111.5 -170t60 -219t17 -263.5t-17 -263.5t-60 -219t-111.5 -170t-175.5 -106t-249 -38.5z M696 1268q-152 0 -216 -115.5t-64 -384.5t64 -384.5t216 -115.5t216.5 115.5t64.5 384.5t-64.5 384.5t-216.5 115.5z" />
<glyph unicode="&#xd3;" horiz-adv-x="1392" d="M809 1618h-246l103 246h348zM696 -29q-142 0 -249 38.5t-175.5 106t-111 170t-59.5 219t-17 263.5t17 263.5t59.5 219t111 170t175.5 106t249 38.5t249 -38.5t175.5 -106t111.5 -170t60 -219t17 -263.5t-17 -263.5t-60 -219t-111.5 -170t-175.5 -106t-249 -38.5z M696 1268q-152 0 -216 -115.5t-64 -384.5t64 -384.5t216 -115.5t216.5 115.5t64.5 384.5t-64.5 384.5t-216.5 115.5z" />
<glyph unicode="&#xd4;" horiz-adv-x="1392" d="M563 1618h-272l252 246h307l252 -246h-273l-133 92zM696 -29q-142 0 -249 38.5t-175.5 106t-111 170t-59.5 219t-17 263.5t17 263.5t59.5 219t111 170t175.5 106t249 38.5t249 -38.5t175.5 -106t111.5 -170t60 -219t17 -263.5t-17 -263.5t-60 -219t-111.5 -170 t-175.5 -106t-249 -38.5zM696 1268q-152 0 -216 -115.5t-64 -384.5t64 -384.5t216 -115.5t216.5 115.5t64.5 384.5t-64.5 384.5t-216.5 115.5z" />
<glyph unicode="&#xd5;" horiz-adv-x="1392" d="M434 1618h-178q0 297 266 297q59 0 113.5 -19.5t87.5 -43t72.5 -43t72.5 -19.5q45 0 67.5 20.5t22.5 53.5h179q0 -297 -267 -297q-59 0 -113.5 19.5t-87.5 43t-72.5 43t-72.5 19.5q-45 0 -67.5 -20.5t-22.5 -53.5zM696 -29q-142 0 -249 38.5t-175.5 106t-111 170 t-59.5 219t-17 263.5t17 263.5t59.5 219t111 170t175.5 106t249 38.5t249 -38.5t175.5 -106t111.5 -170t60 -219t17 -263.5t-17 -263.5t-60 -219t-111.5 -170t-175.5 -106t-249 -38.5zM696 1268q-152 0 -216 -115.5t-64 -384.5t64 -384.5t216 -115.5t216.5 115.5t64.5 384.5 t-64.5 384.5t-216.5 115.5z" />
<glyph unicode="&#xd6;" horiz-adv-x="1392" d="M256 1761q0 82 56 138.5t139 56.5q82 0 138 -56.5t56 -138.5q0 -83 -56 -138.5t-138 -55.5q-83 0 -139 55.5t-56 138.5zM748 1761q0 82 55.5 138.5t138.5 56.5q82 0 138.5 -56.5t56.5 -138.5q0 -83 -56.5 -138.5t-138.5 -55.5q-83 0 -138.5 55.5t-55.5 138.5zM696 -29 q-142 0 -249 38.5t-175.5 106t-111 170t-59.5 219t-17 263.5t17 263.5t59.5 219t111 170t175.5 106t249 38.5t249 -38.5t175.5 -106t111.5 -170t60 -219t17 -263.5t-17 -263.5t-60 -219t-111.5 -170t-175.5 -106t-249 -38.5zM696 1268q-152 0 -216 -115.5t-64 -384.5 t64 -384.5t216 -115.5t216.5 115.5t64.5 384.5t-64.5 384.5t-216.5 115.5z" />
<glyph unicode="&#xd7;" horiz-adv-x="1228" d="M96 406l293 292l-293 293l226 226l292 -293l293 293l226 -226l-293 -293l293 -292l-226 -226l-293 293l-292 -293z" />
<glyph unicode="&#xd8;" horiz-adv-x="1392" d="M696 -29q-191 0 -325 72l-27 -43h-211l98 162q-147 187 -147 606q0 147 17 263.5t59.5 219t111 170t175.5 106t249 38.5q207 0 340 -82l33 53h211l-109 -178q138 -191 138 -590q0 -147 -17 -263.5t-60 -219t-111.5 -170t-175.5 -106t-249 -38.5zM696 1268 q-152 0 -216 -115.5t-64 -384.5q0 -170 22 -266l430 706q-63 60 -172 60zM977 768q0 134 -19 242l-421 -695q58 -47 159 -47q152 0 216.5 115.5t64.5 384.5z" />
<glyph unicode="&#xd9;" d="M788 1618h-245l-205 246h348zM655 -29q-63 0 -123.5 9t-127.5 30t-122.5 60t-101 93.5t-71 137t-25.5 184.5v1051h328v-1034q0 -234 243 -234q244 0 244 234v1034h328v-1051q0 -121 -38 -215t-96 -149t-137 -90t-151.5 -47.5t-149.5 -12.5z" />
<glyph unicode="&#xda;" d="M766 1618h-246l103 246h348zM655 -29q-63 0 -123.5 9t-127.5 30t-122.5 60t-101 93.5t-71 137t-25.5 184.5v1051h328v-1034q0 -234 243 -234q244 0 244 234v1034h328v-1051q0 -121 -38 -215t-96 -149t-137 -90t-151.5 -47.5t-149.5 -12.5z" />
<glyph unicode="&#xdb;" d="M520 1618h-272l252 246h307l252 -246h-273l-133 92zM655 -29q-63 0 -123.5 9t-127.5 30t-122.5 60t-101 93.5t-71 137t-25.5 184.5v1051h328v-1034q0 -234 243 -234q244 0 244 234v1034h328v-1051q0 -121 -38 -215t-96 -149t-137 -90t-151.5 -47.5t-149.5 -12.5z" />
<glyph unicode="&#xdc;" d="M213 1761q0 82 56 138.5t139 56.5q82 0 138 -56.5t56 -138.5q0 -83 -56 -138.5t-138 -55.5q-83 0 -139 55.5t-56 138.5zM705 1761q0 82 55.5 138.5t138.5 56.5q82 0 138.5 -56.5t56.5 -138.5q0 -83 -56.5 -138.5t-138.5 -55.5q-83 0 -138.5 55.5t-55.5 138.5zM655 -29 q-63 0 -123.5 9t-127.5 30t-122.5 60t-101 93.5t-71 137t-25.5 184.5v1051h328v-1034q0 -234 243 -234q244 0 244 234v1034h328v-1051q0 -121 -38 -215t-96 -149t-137 -90t-151.5 -47.5t-149.5 -12.5z" />
<glyph unicode="&#xdd;" horiz-adv-x="1343" d="M784 1618h-245l102 246h348zM1325 1536l-487 -940v-596h-332v596l-488 940h375l279 -641l278 641h375z" />
<glyph unicode="&#xde;" horiz-adv-x="1208" d="M422 266v-266h-328v1536h328v-266h192q148 0 258 -41t172 -112.5t91.5 -158.5t29.5 -190q0 -83 -17.5 -155t-58.5 -136.5t-103.5 -110.5t-157 -73t-214.5 -27h-192zM422 971v-410h194q58 0 99 20t60.5 53.5t27.5 65t8 66.5t-8 66.5t-27.5 65t-60.5 53.5t-99 20h-194z" />
<glyph unicode="&#xdf;" horiz-adv-x="1208" d="M469 764q0 64 20.5 117t49.5 88t58.5 66.5t50 69t20.5 79.5q0 50 -35.5 79t-93.5 29q-61 0 -97 -29t-36 -79v-1184h-322v1198q0 177 113 272t344 95q228 0 340 -95t112 -272q0 -56 -21 -106t-51.5 -86.5t-60.5 -69t-51 -65.5t-21 -64q0 -43 25.5 -67.5t93.5 -53.5 q166 -69 221.5 -141t55.5 -217q0 -117 -54.5 -199t-145 -120t-208.5 -38q-181 0 -307 66v282q41 -25 117.5 -55.5t142.5 -30.5t98.5 21t32.5 74q0 40 -26.5 70.5t-45.5 40t-60 24.5q-6 3 -9 4q-138 57 -194 117t-56 180z" />
<glyph unicode="&#xe0;" horiz-adv-x="1019" d="M645 1126h-246l-215 410h328zM621 651v66q0 36 -28 53.5t-93 17.5q-91 0 -193.5 -22.5t-175.5 -54.5v274q59 26 163.5 47t205.5 21q108 0 187 -19t127 -51t76 -82.5t38 -105.5t10 -129v-666h-197l-45 78q-120 -107 -301 -107q-93 0 -163 28.5t-109 77t-57.5 104 t-18.5 116.5q0 67 15 119.5t45 87t63.5 58t82 38t88 21.5t93.5 12zM621 473l-138 -18q-68 -9 -98.5 -43t-30.5 -95q0 -56 33 -88t86 -32q99 0 148 49v227z" />
<glyph unicode="&#xe1;" horiz-adv-x="1019" d="M625 1126h-246l133 410h328zM621 651v66q0 36 -28 53.5t-93 17.5q-91 0 -193.5 -22.5t-175.5 -54.5v274q59 26 163.5 47t205.5 21q108 0 187 -19t127 -51t76 -82.5t38 -105.5t10 -129v-666h-197l-45 78q-120 -107 -301 -107q-93 0 -163 28.5t-109 77t-57.5 104 t-18.5 116.5q0 67 15 119.5t45 87t63.5 58t82 38t88 21.5t93.5 12zM621 473l-138 -18q-68 -9 -98.5 -43t-30.5 -95q0 -56 33 -88t86 -32q99 0 148 49v227z" />
<glyph unicode="&#xe2;" horiz-adv-x="1019" d="M338 1126h-252l272 410h308l272 -410h-252l-174 195zM621 651v66q0 36 -28 53.5t-93 17.5q-91 0 -193.5 -22.5t-175.5 -54.5v274q59 26 163.5 47t205.5 21q108 0 187 -19t127 -51t76 -82.5t38 -105.5t10 -129v-666h-197l-45 78q-120 -107 -301 -107q-93 0 -163 28.5 t-109 77t-57.5 104t-18.5 116.5q0 67 15 119.5t45 87t63.5 58t82 38t88 21.5t93.5 12zM621 473l-138 -18q-68 -9 -98.5 -43t-30.5 -95q0 -56 33 -88t86 -32q99 0 148 49v227z" />
<glyph unicode="&#xe3;" horiz-adv-x="1019" d="M250 1174h-178q0 177 66 259.5t200 82.5q54 0 99.5 -17t75 -41.5t55 -49t52.5 -41.5t54 -17q58 0 79 32t21 86h178q0 -177 -66.5 -259.5t-199.5 -82.5q-54 0 -99.5 17t-75 41.5t-55 49t-52.5 41.5t-54 17q-58 0 -79 -32t-21 -86zM621 651v66q0 36 -28 53.5t-93 17.5 q-91 0 -193.5 -22.5t-175.5 -54.5v274q59 26 163.5 47t205.5 21q108 0 187 -19t127 -51t76 -82.5t38 -105.5t10 -129v-666h-197l-45 78q-120 -107 -301 -107q-93 0 -163 28.5t-109 77t-57.5 104t-18.5 116.5q0 67 15 119.5t45 87t63.5 58t82 38t88 21.5t93.5 12zM621 473 l-138 -18q-68 -9 -98.5 -43t-30.5 -95q0 -56 33 -88t86 -32q99 0 148 49v227z" />
<glyph unicode="&#xe4;" horiz-adv-x="1019" d="M72 1321q0 82 55.5 138.5t138.5 56.5q82 0 138.5 -56.5t56.5 -138.5q0 -83 -56.5 -139t-138.5 -56q-83 0 -138.5 56t-55.5 139zM563 1321q0 82 56 138.5t139 56.5q82 0 138 -56.5t56 -138.5q0 -83 -56 -139t-138 -56q-83 0 -139 56t-56 139zM621 651v66q0 36 -28 53.5 t-93 17.5q-91 0 -193.5 -22.5t-175.5 -54.5v274q59 26 163.5 47t205.5 21q108 0 187 -19t127 -51t76 -82.5t38 -105.5t10 -129v-666h-197l-45 78q-120 -107 -301 -107q-93 0 -163 28.5t-109 77t-57.5 104t-18.5 116.5q0 67 15 119.5t45 87t63.5 58t82 38t88 21.5t93.5 12z M621 473l-138 -18q-68 -9 -98.5 -43t-30.5 -95q0 -56 33 -88t86 -32q99 0 148 49v227z" />
<glyph unicode="&#xe5;" horiz-adv-x="1019" d="M729 1331q0 -107 -58.5 -161t-158.5 -54t-158.5 54t-58.5 161t58.5 161t158.5 54t158.5 -54t58.5 -161zM467 1331q0 -24 11 -33.5t34 -9.5t34 9.5t11 33.5t-11 33.5t-34 9.5t-34 -9.5t-11 -33.5zM621 651v66q0 36 -28 53.5t-93 17.5q-91 0 -193.5 -22.5t-175.5 -54.5v274 q59 26 163.5 47t205.5 21q108 0 187 -19t127 -51t76 -82.5t38 -105.5t10 -129v-666h-197l-45 78q-120 -107 -301 -107q-93 0 -163 28.5t-109 77t-57.5 104t-18.5 116.5q0 67 15 119.5t45 87t63.5 58t82 38t88 21.5t93.5 12zM621 473l-138 -18q-68 -9 -98.5 -43t-30.5 -95 q0 -56 33 -88t86 -32q99 0 148 49v227z" />
<glyph unicode="&#xe6;" horiz-adv-x="1609" d="M651 264q-21 73 -28 150h-142q-60 0 -93.5 -27.5t-33.5 -83.5q0 -42 31.5 -74t87.5 -32q104 0 178 67zM621 614v103q0 36 -28 53.5t-93 17.5q-91 0 -193.5 -22.5t-175.5 -54.5v274q59 26 163.5 47t205.5 21q195 0 305 -76q110 76 293 76q92 0 164 -19t120.5 -51t82 -81 t51 -101t25 -120t6.5 -129.5t-7 -137.5h-598q-6 -98 46.5 -140.5t174.5 -42.5q206 0 342 68v-256q-175 -72 -385 -72q-239 0 -360 115q-144 -115 -365 -115q-93 0 -163 28.5t-109 77t-57.5 104t-18.5 116.5q0 78 23.5 136.5t60 92t91 54t106 27.5t114.5 7h179zM1102 807 q-82 0 -121 -47.5t-39 -145.5h291q15 92 -14 142.5t-117 50.5z" />
<glyph unicode="&#xe7;" horiz-adv-x="901" d="M786 -297q0 -110 -73 -162.5t-189 -52.5q-61 0 -118.5 12t-86.5 27v186q93 -30 179 -30q77 0 77 47q0 26 -29.5 45.5t-115.5 31.5l19 173q-211 28 -304.5 160.5t-93.5 371.5q0 270 121 405.5t397 135.5q153 0 260 -52v-278q-110 47 -227 47q-109 0 -168 -59.5t-59 -198.5 t59 -198.5t168 -59.5q117 0 227 47v-278q-101 -47 -233 -52l6 -88q94 -22 139 -65.5t45 -114.5z" />
<glyph unicode="&#xe8;" horiz-adv-x="1042" d="M664 1126h-246l-215 410h327zM973 403h-598q-6 -97 45.5 -134.5t175.5 -37.5q206 0 342 68v-256q-175 -72 -385 -72q-254 0 -378 132.5t-124 408.5q0 275 119.5 408t359.5 133q106 0 186.5 -26t129 -71t80.5 -107t41.5 -134.5t12.5 -151.5t-7 -160zM535 807 q-160 0 -160 -203h291q32 203 -131 203z" />
<glyph unicode="&#xe9;" horiz-adv-x="1042" d="M643 1126h-246l133 410h328zM973 403h-598q-6 -97 45.5 -134.5t175.5 -37.5q206 0 342 68v-256q-175 -72 -385 -72q-254 0 -378 132.5t-124 408.5q0 275 119.5 408t359.5 133q106 0 186.5 -26t129 -71t80.5 -107t41.5 -134.5t12.5 -151.5t-7 -160zM535 807 q-160 0 -160 -203h291q32 203 -131 203z" />
<glyph unicode="&#xea;" horiz-adv-x="1042" d="M356 1126h-252l273 410h307l272 -410h-251l-175 195zM973 403h-598q-6 -97 45.5 -134.5t175.5 -37.5q206 0 342 68v-256q-175 -72 -385 -72q-254 0 -378 132.5t-124 408.5q0 275 119.5 408t359.5 133q106 0 186.5 -26t129 -71t80.5 -107t41.5 -134.5t12.5 -151.5t-7 -160 zM535 807q-160 0 -160 -203h291q32 203 -131 203z" />
<glyph unicode="&#xeb;" horiz-adv-x="1042" d="M90 1321q0 82 56 138.5t139 56.5q82 0 138 -56.5t56 -138.5q0 -83 -56 -139t-138 -56q-83 0 -139 56t-56 139zM582 1321q0 82 55.5 138.5t138.5 56.5q82 0 138.5 -56.5t56.5 -138.5q0 -83 -56.5 -139t-138.5 -56q-83 0 -138.5 56t-55.5 139zM973 403h-598 q-6 -97 45.5 -134.5t175.5 -37.5q206 0 342 68v-256q-175 -72 -385 -72q-254 0 -378 132.5t-124 408.5q0 275 119.5 408t359.5 133q106 0 186.5 -26t129 -71t80.5 -107t41.5 -134.5t12.5 -151.5t-7 -160zM535 807q-160 0 -160 -203h291q32 203 -131 203z" />
<glyph unicode="&#xec;" horiz-adv-x="563" d="M512 256v-264q-43 -8 -94 -8q-140 0 -228 72.5t-88 215.5v752h326v-707q0 -31 18.5 -46t65.5 -15zM389 1126h-246l-215 410h328z" />
<glyph unicode="&#xed;" horiz-adv-x="563" d="M512 256v-264q-43 -8 -94 -8q-140 0 -228 72.5t-88 215.5v752h326v-707q0 -31 18.5 -46t65.5 -15zM391 1126h-246l134 410h327z" />
<glyph unicode="&#xee;" horiz-adv-x="563" d="M512 256v-264q-43 -8 -94 -8q-140 0 -228 72.5t-88 215.5v752h326v-707q0 -31 18.5 -46t65.5 -15zM92 1126h-252l273 410h307l272 -410h-252l-174 195z" />
<glyph unicode="&#xef;" horiz-adv-x="563" d="M-154 1321q0 82 56 138.5t139 56.5q82 0 138.5 -56.5t56.5 -138.5q0 -83 -56.5 -139t-138.5 -56q-83 0 -139 56t-56 139zM297 1321q0 82 56 138.5t139 56.5q82 0 138 -56.5t56 -138.5q0 -83 -56 -139t-138 -56q-83 0 -139 56t-56 139zM512 256v-264q-43 -8 -94 -8 q-140 0 -228 72.5t-88 215.5v752h326v-707q0 -31 18.5 -46t65.5 -15z" />
<glyph unicode="&#xf0;" horiz-adv-x="1179" d="M1014 512q0 -100 -13.5 -179t-47 -148.5t-87.5 -115.5t-138.5 -72t-195.5 -26q-138 0 -234 38.5t-149 113.5t-75.5 169t-22.5 220q0 541 441 541q86 0 120 -19q-40 84 -104 156l-281 -143v161l185 95q-150 145 -338 233h448q91 -57 142 -104l204 104v-162l-100 -51 q246 -304 246 -811zM532 791q-85 0 -119 -62.5t-34 -216.5t34 -216.5t119 -62.5t119.5 62.5t34.5 216.5t-34.5 216.5t-119.5 62.5z" />
<glyph unicode="&#xf1;" horiz-adv-x="1126" d="M328 1174h-178q0 177 66 259.5t200 82.5q54 0 99.5 -17t75 -41.5t55 -49t52.5 -41.5t54 -17q58 0 79 32t21 86h178q0 -177 -66.5 -259.5t-199.5 -82.5q-54 0 -99.5 17t-75 41.5t-55 49t-52.5 41.5t-54 17q-58 0 -79 -32t-21 -86zM92 1024h197l41 -74q169 103 356 103 q102 0 173.5 -25.5t111 -73.5t56.5 -107.5t17 -137.5v-709h-327v659q0 61 -26 94t-89 33q-100 0 -182 -53v-733h-328v1024z" />
<glyph unicode="&#xf2;" horiz-adv-x="1064" d="M532 -29q-138 0 -234 38.5t-149 113.5t-75.5 169t-22.5 220t22.5 220t75.5 169t149 113.5t234 38.5q111 0 195.5 -26t138.5 -72t87.5 -115.5t47 -148.5t13.5 -179t-13.5 -179t-47 -148.5t-87.5 -115.5t-138.5 -72t-195.5 -26zM532 791q-85 0 -119 -62.5t-34 -216.5 t34 -216.5t119 -62.5t119.5 62.5t34.5 216.5t-34.5 216.5t-119.5 62.5zM666 1126h-246l-215 410h327z" />
<glyph unicode="&#xf3;" horiz-adv-x="1064" d="M532 -29q-138 0 -234 38.5t-149 113.5t-75.5 169t-22.5 220t22.5 220t75.5 169t149 113.5t234 38.5q111 0 195.5 -26t138.5 -72t87.5 -115.5t47 -148.5t13.5 -179t-13.5 -179t-47 -148.5t-87.5 -115.5t-138.5 -72t-195.5 -26zM532 791q-85 0 -119 -62.5t-34 -216.5 t34 -216.5t119 -62.5t119.5 62.5t34.5 216.5t-34.5 216.5t-119.5 62.5zM645 1126h-246l133 410h328z" />
<glyph unicode="&#xf4;" horiz-adv-x="1064" d="M532 -29q-138 0 -234 38.5t-149 113.5t-75.5 169t-22.5 220t22.5 220t75.5 169t149 113.5t234 38.5q111 0 195.5 -26t138.5 -72t87.5 -115.5t47 -148.5t13.5 -179t-13.5 -179t-47 -148.5t-87.5 -115.5t-138.5 -72t-195.5 -26zM532 791q-85 0 -119 -62.5t-34 -216.5 t34 -216.5t119 -62.5t119.5 62.5t34.5 216.5t-34.5 216.5t-119.5 62.5zM358 1126h-252l273 410h307l272 -410h-251l-175 195z" />
<glyph unicode="&#xf5;" horiz-adv-x="1064" d="M270 1174h-178q0 177 66 259.5t200 82.5q54 0 99.5 -17t75 -41.5t55 -49t52.5 -41.5t54 -17q101 0 101 118h178q0 -177 -66.5 -259.5t-199.5 -82.5q-54 0 -99.5 17t-75 41.5t-55 49t-52.5 41.5t-54 17q-101 0 -101 -118zM532 -29q-138 0 -234 38.5t-149 113.5t-75.5 169 t-22.5 220t22.5 220t75.5 169t149 113.5t234 38.5q111 0 195.5 -26t138.5 -72t87.5 -115.5t47 -148.5t13.5 -179t-13.5 -179t-47 -148.5t-87.5 -115.5t-138.5 -72t-195.5 -26zM532 791q-85 0 -119 -62.5t-34 -216.5t34 -216.5t119 -62.5t119.5 62.5t34.5 216.5t-34.5 216.5 t-119.5 62.5z" />
<glyph unicode="&#xf6;" horiz-adv-x="1064" d="M92 1321q0 82 56 138.5t139 56.5q82 0 138 -56.5t56 -138.5q0 -83 -56 -139t-138 -56q-83 0 -139 56t-56 139zM584 1321q0 82 55.5 138.5t138.5 56.5q82 0 138.5 -56.5t56.5 -138.5q0 -83 -56.5 -139t-138.5 -56q-83 0 -138.5 56t-55.5 139zM532 -29q-138 0 -234 38.5 t-149 113.5t-75.5 169t-22.5 220t22.5 220t75.5 169t149 113.5t234 38.5q111 0 195.5 -26t138.5 -72t87.5 -115.5t47 -148.5t13.5 -179t-13.5 -179t-47 -148.5t-87.5 -115.5t-138.5 -72t-195.5 -26zM532 791q-85 0 -119 -62.5t-34 -216.5t34 -216.5t119 -62.5t119.5 62.5 t34.5 216.5t-34.5 216.5t-119.5 62.5z" />
<glyph unicode="&#xf7;" horiz-adv-x="1228" d="M420 1110q0 82 55.5 138.5t138.5 56.5q82 0 138.5 -56.5t56.5 -138.5q0 -83 -56.5 -139t-138.5 -56q-83 0 -138.5 56t-55.5 139zM1126 543h-1024v311h1024v-311zM809 287q0 -82 -56 -138.5t-139 -56.5q-82 0 -138 56.5t-56 138.5q0 83 56 138.5t138 55.5q83 0 139 -55.5 t56 -138.5z" />
<glyph unicode="&#xf8;" horiz-adv-x="1064" d="M1014 1024l-96 -125q96 -128 96 -387q0 -100 -13.5 -179t-47 -148.5t-87.5 -115.5t-138.5 -72t-195.5 -26q-162 0 -276 60l-23 -31h-182l94 125q-94 129 -94 387q0 126 22.5 220t75.5 169t149 113.5t234 38.5q163 0 277 -60l22 31h183zM686 512q0 32 -4 78l-246 -324 q33 -33 96 -33q85 0 119.5 62.5t34.5 216.5zM532 791q-85 0 -119 -62.5t-34 -216.5q0 -55 2 -78l248 324q-36 33 -97 33z" />
<glyph unicode="&#xf9;" horiz-adv-x="1126" d="M1034 0h-196l-41 74q-169 -103 -357 -103q-102 0 -173.5 25.5t-111 73.5t-56.5 107.5t-17 137.5v709h328v-659q0 -61 26 -94t88 -33q101 0 183 53v733h327v-1024zM690 1126h-246l-215 410h328z" />
<glyph unicode="&#xfa;" horiz-adv-x="1126" d="M1034 0h-196l-41 74q-169 -103 -357 -103q-102 0 -173.5 25.5t-111 73.5t-56.5 107.5t-17 137.5v709h328v-659q0 -61 26 -94t88 -33q101 0 183 53v733h327v-1024zM670 1126h-246l133 410h328z" />
<glyph unicode="&#xfb;" horiz-adv-x="1126" d="M1034 0h-196l-41 74q-169 -103 -357 -103q-102 0 -173.5 25.5t-111 73.5t-56.5 107.5t-17 137.5v709h328v-659q0 -61 26 -94t88 -33q101 0 183 53v733h327v-1024zM383 1126h-252l272 410h308l272 -410h-252l-174 195z" />
<glyph unicode="&#xfc;" horiz-adv-x="1126" d="M117 1321q0 82 55.5 138.5t138.5 56.5q82 0 138.5 -56.5t56.5 -138.5q0 -83 -56.5 -139t-138.5 -56q-83 0 -138.5 56t-55.5 139zM608 1321q0 82 56 138.5t139 56.5q82 0 138 -56.5t56 -138.5q0 -83 -56 -139t-138 -56q-83 0 -139 56t-56 139zM1034 0h-196l-41 74 q-169 -103 -357 -103q-102 0 -173.5 25.5t-111 73.5t-56.5 107.5t-17 137.5v709h328v-659q0 -61 26 -94t88 -33q101 0 183 53v733h327v-1024z" />
<glyph unicode="&#xfd;" horiz-adv-x="1064" d="M10 1024h355l167 -602l168 602h355l-586 -1536h-358l266 580zM645 1126h-246l133 410h328z" />
<glyph unicode="&#xfe;" horiz-adv-x="1124" d="M92 1536h328v-549q109 66 256 66q202 0 299.5 -130.5t97.5 -410.5t-97.5 -410.5t-299.5 -130.5q-147 0 -256 66v-549h-328v2048zM420 743v-464q63 -43 145 -43q56 0 93 18t57 55.5t27.5 85t7.5 117.5q0 141 -38.5 207.5t-146.5 66.5q-36 0 -72.5 -11t-54.5 -21z" />
<glyph unicode="&#xff;" horiz-adv-x="1064" d="M10 1024h355l167 -602l168 602h355l-586 -1536h-358l266 580zM92 1321q0 82 56 138.5t139 56.5q82 0 138 -56.5t56 -138.5q0 -83 -56 -139t-138 -56q-83 0 -139 56t-56 139zM584 1321q0 82 55.5 138.5t138.5 56.5q82 0 138.5 -56.5t56.5 -138.5q0 -83 -56.5 -139 t-138.5 -56q-83 0 -138.5 56t-55.5 139z" />
<glyph unicode="&#x152;" horiz-adv-x="1828" d="M1696 940v-293h-531v-348h590v-299h-1026q-152 0 -267.5 39t-188 105t-118 166t-63.5 210t-18 248t18 248t63.5 210t118 166t188 105t267.5 39h1026v-299h-590v-297h531zM838 299v938h-115q-172 0 -240.5 -116.5t-68.5 -352.5q0 -116 15 -199t49.5 -145.5t95.5 -93.5 t149 -31h115z" />
<glyph unicode="&#x153;" horiz-adv-x="1687" d="M532 791q-85 0 -119 -62.5t-34 -216.5t34 -216.5t119 -62.5t119.5 62.5t34.5 216.5t-34.5 216.5t-119.5 62.5zM1198 -29q-215 0 -338 105q-118 -105 -328 -105q-138 0 -234 38.5t-149 113.5t-75.5 169t-22.5 220t22.5 220t75.5 169t149 113.5t234 38.5q208 0 326 -105 q117 105 318 105q92 0 164 -19.5t120 -52.5t82 -83t51.5 -103.5t25 -122.5t6.5 -131t-7 -138h-598q-6 -97 45.5 -134.5t175.5 -37.5q206 0 342 68v-256q-175 -72 -385 -72zM1180 807q-160 0 -160 -203h291q32 203 -131 203z" />
<glyph unicode="&#x178;" horiz-adv-x="1343" d="M231 1761q0 82 56 138.5t139 56.5q82 0 138.5 -56.5t56.5 -138.5q0 -83 -56.5 -138.5t-138.5 -55.5q-83 0 -139 55.5t-56 138.5zM723 1761q0 82 56 138.5t139 56.5q82 0 138 -56.5t56 -138.5q0 -83 -56 -138.5t-138 -55.5q-83 0 -139 55.5t-56 138.5zM1325 1536 l-487 -940v-596h-332v596l-488 940h375l279 -641l278 641h375z" />
<glyph unicode="&#x2c6;" horiz-adv-x="1024" d="M338 1126h-252l272 410h308l272 -410h-252l-174 195z" />
<glyph unicode="&#x2dc;" horiz-adv-x="1024" d="M250 1174h-178q0 177 66 259.5t200 82.5q54 0 99.5 -17t75 -41.5t55 -49t52.5 -41.5t54 -17q58 0 79 32t21 86h178q0 -177 -66.5 -259.5t-199.5 -82.5q-54 0 -99.5 17t-75 41.5t-55 49t-52.5 41.5t-54 17q-58 0 -79 -32t-21 -86z" />
<glyph unicode="&#x2000;" horiz-adv-x="978" />
<glyph unicode="&#x2001;" horiz-adv-x="1956" />
<glyph unicode="&#x2002;" horiz-adv-x="978" />
<glyph unicode="&#x2003;" horiz-adv-x="1956" />
<glyph unicode="&#x2004;" horiz-adv-x="652" />
<glyph unicode="&#x2005;" horiz-adv-x="489" />
<glyph unicode="&#x2006;" horiz-adv-x="326" />
<glyph unicode="&#x2007;" horiz-adv-x="326" />
<glyph unicode="&#x2008;" horiz-adv-x="244" />
<glyph unicode="&#x2009;" horiz-adv-x="391" />
<glyph unicode="&#x200a;" horiz-adv-x="108" />
<glyph unicode="&#x2010;" horiz-adv-x="655" d="M594 795v-283h-533v283h533z" />
<glyph unicode="&#x2011;" horiz-adv-x="655" d="M594 795v-283h-533v283h533z" />
<glyph unicode="&#x2012;" horiz-adv-x="655" d="M594 795v-283h-533v283h533z" />
<glyph unicode="&#x2013;" horiz-adv-x="1024" d="M932 795v-283h-840v283h840z" />
<glyph unicode="&#x2014;" horiz-adv-x="2048" d="M1956 795v-283h-1864v283h1864z" />
<glyph unicode="&#x2018;" horiz-adv-x="430" d="M170 1536h203l-60 -512h-338z" />
<glyph unicode="&#x2019;" horiz-adv-x="430" d="M260 1024h-203l60 512h338z" />
<glyph unicode="&#x201a;" horiz-adv-x="471" d="M219 -328h-203l60 512h338z" />
<glyph unicode="&#x201c;" horiz-adv-x="819" d="M559 1536h203l-60 -512h-337zM170 1536h203l-60 -512h-338z" />
<glyph unicode="&#x201d;" horiz-adv-x="819" d="M260 1024h-203l60 512h338zM649 1024h-203l60 512h338z" />
<glyph unicode="&#x201e;" horiz-adv-x="860" d="M219 -328h-203l60 512h338zM608 -328h-202l59 512h338z" />
<glyph unicode="&#x2022;" horiz-adv-x="819" d="M133 768q0 115 80.5 195.5t196.5 80.5t196 -80t80 -196t-80 -196t-196 -80t-196.5 80.5t-80.5 195.5z" />
<glyph unicode="&#x2026;" horiz-adv-x="2048" d="M154 166q0 82 55.5 138t138.5 56q82 0 138.5 -56t56.5 -138q0 -83 -56.5 -139t-138.5 -56q-83 0 -138.5 56t-55.5 139zM1505 166q0 82 56 138t139 56q82 0 138 -56t56 -138q0 -83 -56 -139t-138 -56q-83 0 -139 56t-56 139zM829 166q0 82 56 138t139 56q82 0 138.5 -56 t56.5 -138q0 -83 -56.5 -139t-138.5 -56q-83 0 -139 56t-56 139z" />
<glyph unicode="&#x202f;" horiz-adv-x="391" />
<glyph unicode="&#x2039;" horiz-adv-x="624" d="M113 418v188l389 307v-280l-121 -121l121 -121v-282z" />
<glyph unicode="&#x203a;" horiz-adv-x="624" d="M512 606v-188l-389 -309v282l119 121l-119 121v280z" />
<glyph unicode="&#x205f;" horiz-adv-x="489" />
<glyph unicode="&#x20ac;" horiz-adv-x="1265" d="M180 670h-137v204h160q27 119 82.5 203.5t139 135t188 73.5t237.5 23q210 0 342 -54v-290q-124 47 -318 47q-138 0 -216 -30t-115 -108h501l-71 -204h-469v-58h450l-71 -204h-342q38 -80 116.5 -110t216.5 -30q194 0 318 47v-290q-132 -54 -342 -54q-271 0 -433 102 t-214 335h-160v204h137v58z" />
<glyph unicode="&#x2122;" horiz-adv-x="1239" d="M471 1364h-119v-340h-180v340h-121v172h420v-172zM991 1317l-69 -244h-142l-73 244l12 -293h-187v512h250l68 -287l68 287h247v-512h-186z" />
<glyph unicode="&#x25fc;" horiz-adv-x="1024" d="M0 1024h1024v-1024h-1024v1024z" />
</font>
</defs>
</svg>
